<?xml version="1.0" encoding="UTF-8" standalone="no"?>
<!-- Created with Inkscape (http://www.inkscape.org/) -->

<svg
   width="512.0px"
   height="512.0px"
   viewBox="0 0 512.0 512.0"
   version="1.1"
   id="SVGRoot"
   sodipodi:docname="100%organic.svg"
   inkscape:version="1.2.1 (0f2f062aeb, 2022-09-21, custom)"
   xmlns:inkscape="http://www.inkscape.org/namespaces/inkscape"
   xmlns:sodipodi="http://sodipodi.sourceforge.net/DTD/sodipodi-0.dtd"
   xmlns="http://www.w3.org/2000/svg"
   xmlns:svg="http://www.w3.org/2000/svg">
  <sodipodi:namedview
     id="namedview137"
     pagecolor="#ffffff"
     bordercolor="#000000"
     borderopacity="0.25"
     inkscape:showpageshadow="2"
     inkscape:pageopacity="0.0"
     inkscape:pagecheckerboard="0"
     inkscape:deskcolor="#d1d1d1"
     inkscape:document-units="px"
     showgrid="true"
     inkscape:zoom="1.0095384"
     inkscape:cx="279.83086"
     inkscape:cy="185.72844"
     inkscape:window-width="1366"
     inkscape:window-height="697"
     inkscape:window-x="0"
     inkscape:window-y="0"
     inkscape:window-maximized="1"
     inkscape:current-layer="layer1">
    <inkscape:grid
       type="xygrid"
       id="grid260" />
  </sodipodi:namedview>
  <defs
     id="defs132" />
  <g
     inkscape:label="Layer 1"
     inkscape:groupmode="layer"
     id="layer1">
    <path
       d="m 132.53482,45.70599 c -1.23733,0.184 -2.21867,0.65333 -3.01067,1.45466 -0.63733,0.64534 -0.84133,1.01334 -2.06266,3.75067 -8.612,19.29867 -13.48134,39.94933 -14.392,61.03333 -0.2,4.65733 -0.192,10.04933 0.02,14.748 1.344,29.41333 10.40133,57.884 26.33733,82.76667 8.39067,13.10133 18.72267,25.116 30.468,35.42266 13.52267,11.868 28.776,21.41867 45.448,28.44933 17.53733,7.39867 36.268,11.724 55.55866,12.832 2.12,0.11867 4.44934,0.028 8.64,-0.33466 27.68134,-2.40267 52.348,-11.96534 73.636,-28.548 11.45067,-8.91867 22.17467,-20.04267 31.98667,-33.176 4.15466,-5.564 8.032,-11.316 11.93733,-17.70933 5.12267,-8.39067 9.29333,-16.74934 12.90133,-25.86 5.85467,-14.776 9.596,-30.54134 11.03067,-46.44934 0.936,-10.43333 0.88667,-21.084 -0.14667,-31.47599 -1.69066,-17.01467 -5.964,-33.62134 -12.684,-49.31734 -1.09866,-2.56933 -2.16933,-4.89866 -2.43466,-5.30666 -0.69467,-1.06267 -1.7,-1.78534 -2.96934,-2.132 -0.38,-0.10667 -0.42933,-0.11067 -1.43333,-0.10667 -1.80533,0.004 -6.17733,0.32667 -9.968,0.736 -25.092,2.696 -49.20266,11.00533 -70.592,24.336 -9.52266,5.936 -18.25733,12.68 -26.53333,20.492 -1.25467,1.18 -5.05333,4.968 -6.21333,6.19333 -7.48,7.89734 -14.27734,16.59067 -19.86267,25.41067 -0.42933,0.67466 -0.80533,1.26266 -0.83333,1.30266 -0.0533,0.0733 -0.0987,0.016 -0.544,-0.69466 -7.90134,-12.57067 -17.79467,-24.372 -28.90267,-34.47867 -13.404,-12.19066 -28.60933,-22.072 -45.22266,-29.38933 -18.07734,-7.95733 -37.64134,-12.68 -57.39734,-13.84533 -1.52,-0.0893 -2.56933,-0.13067 -2.75733,-0.10267 z m 5.41333,10.372 c 4.248,0.33466 8.92267,0.90666 13.17467,1.61733 20.25867,3.37467 39.56133,10.62933 57.00933,21.42267 15.84667,9.804 29.932,22.464 41.36667,37.17599 10.30266,13.256 18.37466,27.992 24.03733,43.87467 0.50667,1.41733 1.65867,4.89467 2.124,6.41333 3.69733,12.03867 5.928,24.38 6.67867,36.95067 0.212,3.55467 0.28133,6.48667 0.25333,10.49867 -0.024,3.14933 -0.0493,4.06533 -0.172,6.59733 -0.70267,14.26933 -3.36267,28.42133 -7.90533,42.016 -0.88267,2.64266 -2.332,6.65866 -2.40667,6.65866 -0.016,0 -2.34933,-3.93866 -5.192,-8.75466 -2.83867,-4.812 -7.648,-12.96267 -10.68267,-18.10533 -3.04,-5.148 -8.35866,-14.164 -11.82666,-20.03734 -3.468,-5.87333 -9.82534,-16.64666 -14.12667,-23.94 -4.30133,-7.29333 -10.22933,-17.33733 -13.17467,-22.32533 -2.94133,-4.988 -7.33733,-12.436 -9.76399,-16.54533 -2.42667,-4.11334 -4.49334,-7.60667 -4.596,-7.76134 -0.24934,-0.376 -0.88667,-1.01333 -1.29067,-1.28666 -1.548,-1.03734 -3.432,-1.172 -5.08667,-0.36 -0.94,0.46133 -1.78533,1.312 -2.26666,2.272 -0.68267,1.36 -0.68667,3.092 -0.008,4.432 0.12666,0.24933 43.44266,73.66 68.23599,115.63599 0.972,1.65067 1.76134,3.00667 1.748,3.01867 -0.024,0.024 -1.63066,-0.15067 -3.32933,-0.364 -19.69467,-2.45867 -38.744,-8.624 -56.172,-18.188 -18.812,-10.31867 -35.34533,-24.42133 -48.52,-41.37866 -7.70533,-9.91467 -14.26533,-20.85067 -19.368,-32.26534 -7.97466,-17.856 -12.52133,-36.848 -13.50933,-56.41733 -0.13867,-2.82267 -0.164,-3.848 -0.164,-7.78267 0,-3.94266 0.02,-4.93066 0.164,-7.82266 0.928,-18.588 5.16,-36.95067 12.436,-53.94533 0.31867,-0.74 0.576,-1.368 0.576,-1.39734 0,-0.0373 0.0613,-0.0453 0.23733,-0.0333 0.12667,0.012 0.81334,0.0693 1.52,0.12267 z m 260.824,0.67466 c 7.48,17.28 11.83866,36.076 12.72133,54.844 0.11467,2.42267 0.13067,3.084 0.15067,6.39333 0.024,3.56667 -0.008,5.364 -0.13067,8.17067 -1.164,25.94133 -8.73467,51.18 -22.032,73.472 -5.90667,9.89467 -12.54533,19.28267 -19.368,27.37067 -5.29867,6.28266 -10.96933,12.092 -16.75333,17.16133 -19.98133,17.50133 -42.952,27.824 -69.16267,31.084 -1.22933,0.15066 -3.76666,0.43333 -3.78266,0.41733 -0.004,-0.004 0.0893,-0.25733 0.212,-0.56 2.01466,-4.996 4.06133,-10.96533 5.568,-16.23867 2.096,-7.34533 3.59066,-14.31466 4.74266,-22.12133 0.11467,-0.752 0.24134,-1.49066 0.28134,-1.64266 0.0453,-0.15067 0.192,-0.85734 0.33066,-1.57334 3.51734,-18.26533 9.69467,-35.684 18.29334,-51.608 6.496,-12.03066 14.30666,-23.02 23.212,-32.66133 2.476,-2.68 5.376,-5.58 7.96666,-7.96667 3.37067,-3.10533 7.076,-6.14 9.82533,-8.052 1.38534,-0.96 2.06667,-1.84666 2.41067,-3.13333 0.64533,-2.41467 -0.61733,-4.964 -2.92933,-5.90667 -0.74,-0.30266 -1.00934,-0.35066 -1.932,-0.35066 -0.76,0.004 -0.84534,0.012 -1.21334,0.11466 -0.84133,0.23334 -1.352,0.52267 -2.93733,1.66267 -8.29733,5.98133 -18.10133,15.57733 -25.864,25.316 -10.344,12.97467 -18.768,27.19467 -25.15733,42.47867 -0.33867,0.80933 -1.156,2.81066 -1.26667,3.10533 -0.024,0.0613 -0.0533,0.10667 -0.0613,0.0933 -0.012,-0.008 -0.0813,-0.63333 -0.164,-1.38533 -2.22667,-21.096 -8.54267,-41.796 -18.48133,-60.55867 l -0.69067,-1.30266 0.31067,-0.18 c 0.70266,-0.396 1.29466,-0.956 1.748,-1.64267 0.13866,-0.212 0.47733,-0.756 0.752,-1.20533 1.82666,-2.98667 4.35466,-6.76934 6.512,-9.74267 8.29333,-11.44266 17.98266,-21.63066 28.928,-30.41866 12.272,-9.84934 25.892,-17.77067 40.52933,-23.572 14.47866,-5.736 29.78133,-9.29334 45.30133,-10.536 0.69867,-0.0533 1.348,-0.10667 1.45067,-0.11467 0.10266,-0.008 0.216,-0.012 0.26133,-0.012 0.0573,0.004 0.15067,0.188 0.41733,0.80133 z"
       id="path504"
       style="stroke-width:1.33333" />
    <text
       xml:space="preserve"
       style="font-weight:bold;font-size:53.3333px;font-family:sans-serif;-inkscape-font-specification:'sans-serif, Bold';fill:#ff2a2a;fill-rule:evenodd;stroke:#000000;stroke-width:0.533333"
       x="80.990623"
       y="378.70135"
       id="text818"><tspan
         sodipodi:role="line"
         id="tspan816"
         x="80.990623"
         y="378.70135"
         style="font-style:normal;font-variant:normal;font-weight:bold;font-stretch:normal;font-size:53.3333px;font-family:'Noto Sans CJK KR';-inkscape-font-specification:'Noto Sans CJK KR, Bold';font-variant-ligatures:normal;font-variant-caps:normal;font-variant-numeric:normal;font-variant-east-asian:normal;fill:#000000">100% organic</tspan></text>
  </g>
</svg>
