<?xml version="1.0" encoding="UTF-8" standalone="no"?>
<svg
   version="1.0"
   width="794.000000pt"
   height="1123.000000pt"
   viewBox="0 0 794.000000 1123.000000"
   preserveAspectRatio="xMidYMid meet"
   id="svg1198"
   sodipodi:docname="layers"
   inkscape:version="1.2.1 (0f2f062aeb, 2022-09-21, custom)"
   xmlns:inkscape="http://www.inkscape.org/namespaces/inkscape"
   xmlns:sodipodi="http://sodipodi.sourceforge.net/DTD/sodipodi-0.dtd"
   xmlns="http://www.w3.org/2000/svg"
   xmlns:svg="http://www.w3.org/2000/svg">
  <defs
     id="defs1202" />
  <sodipodi:namedview
     id="namedview1200"
     pagecolor="#ffffff"
     bordercolor="#000000"
     borderopacity="0.25"
     inkscape:showpageshadow="2"
     inkscape:pageopacity="0.0"
     inkscape:pagecheckerboard="0"
     inkscape:deskcolor="#d1d1d1"
     inkscape:document-units="pt"
     showgrid="false"
     inkscape:zoom="0.30654497"
     inkscape:cx="419.18809"
     inkscape:cy="725.83152"
     inkscape:window-width="1366"
     inkscape:window-height="697"
     inkscape:window-x="0"
     inkscape:window-y="0"
     inkscape:window-maximized="1"
     inkscape:current-layer="layer3" />
  <metadata
     id="metadata1144">
Created by potrace 1.16, written by Peter Selinger 2001-2019
</metadata>
  <g
     inkscape:groupmode="layer"
     id="layer2"
     inkscape:label="b"
     style="display:inline">
    <path
       d="m 369.5,381.5 c -13.9,3 -25.6,9.5 -36.1,20 -13.2,13.2 -19.6,28.7 -19.6,48 -0.1,17.6 4.9,31.9 15.4,44.3 13.6,15.9 31.5,24.2 52.6,24.3 12.6,0 20.9,-1.9 32.2,-7.4 6.9,-3.4 10.2,-5.8 17.5,-13.2 7.4,-7.3 9.9,-10.6 13.3,-17.6 5,-10.2 7.2,-19.4 7.2,-30.9 0,-19.3 -6.3,-34.3 -20,-48.1 -7.1,-7.2 -10,-9.4 -18,-13.3 -14.4,-7 -30.5,-9.2 -44.5,-6.1 z m 25.4,15 c 41.8,9.9 56.2,60.8 25.7,91 -21,20.9 -53.7,21.3 -75.4,1.1 -4.9,-4.6 -7.3,-7.9 -11,-15.4 l -4.7,-9.5 v -14.1 -14.1 l 4.3,-8.8 c 11.4,-23.4 36.8,-35.9 61.1,-30.2 z"
       id="path1148"
       style="display:none;fill:#000000;stroke:none;stroke-width:0.1" />
  </g>
  <g
     inkscape:groupmode="layer"
     id="layer3"
     inkscape:label="a">
    <path
       d="m 365,275.6 c -21.2,2.6 -42,9 -62,19.1 -19.5,9.8 -30.8,18.1 -47,34.3 -15.9,15.9 -24.4,27.3 -33.9,46 -14.2,28 -20,54.9 -18.8,87 1.1,27.3 9.3,60.1 24.7,97.9 30.2,74.5 65.7,132.5 111.4,182.3 13,14.1 30.9,30.7 37.3,34.5 3.1,1.8 5,2.3 7.1,1.8 3.7,-0.8 13.5,-8.8 28.2,-23.1 6.3,-6.2 12.7,-12.2 14.1,-13.3 4.4,-3.4 17.5,-11.3 35.9,-21.6 32.4,-18.1 48.5,-29.9 66.3,-48.5 22.3,-23.3 36.7,-51 43.9,-84.5 2,-9.5 2.3,-13.7 2.2,-30.5 -0.1,-26.4 -3.9,-49.5 -12.6,-75.5 -5.6,-16.8 -10.6,-26.7 -14,-27.9 -4,-1.4 -6.8,1.6 -12.8,13.7 -8.4,16.8 -14.5,24.2 -44.1,53.7 -34.4,34.3 -43.3,44.8 -51.2,60.5 -12.4,24.8 -17.6,57.1 -16.9,105.3 0.2,7.6 0.5,10.3 1.4,10 1.8,-0.6 16.4,-20.2 27.4,-36.6 25.6,-38.5 40.8,-67.7 63.8,-123.4 1.5,-3.6 3.5,-7.3 4.4,-8.1 5,-4.5 12.2,-1.6 12.2,4.9 0,9.2 -30.6,75 -49.3,105.9 -26.2,43.5 -47.5,71.2 -79.3,103.2 -10.6,10.6 -19.9,19.3 -20.7,19.3 -2.3,0 -32.1,-29.3 -43.9,-43.2 -39,-45.6 -70.4,-99.6 -98,-168.3 -10.3,-25.4 -20,-60.6 -21.9,-79.5 -2.4,-22.2 0.5,-47.4 7.7,-68.1 14.6,-41.9 44.4,-75.8 83.9,-95.3 28.7,-14.2 54.7,-19.2 86.2,-16.8 23,1.9 36.1,5.2 55.3,14.3 34.5,16.4 63.8,47.3 77,81.2 3.8,9.6 5.5,16.2 8,30.1 2.1,12.1 3.6,14.6 8.6,14.6 4.7,0 6.4,-2.9 6.4,-11 -0.1,-12.3 -5.1,-30.7 -13.1,-47.9 -23.4,-50 -68.9,-84.6 -124.4,-94.7 -8.7,-1.6 -41.5,-2.7 -49.5,-1.8 z"
       id="path1146"
       style="fill:#000000;stroke:none;stroke-width:0.1" />
  </g>
  <g
     inkscape:groupmode="layer"
     id="layer4"
     inkscape:label="c"
     style="display:none">
    <path
       d="m 352.5,578.9 c -3.6,7.2 -9.6,33 -11,48.2 -1.4,14.4 2.9,36.2 10,51.7 9.4,20.2 34.5,49.2 42.6,49.2 6,0 11.4,-18.6 14,-48.5 3.1,-34.9 -4.7,-58.4 -27.5,-82.4 -7.6,-8 -23.2,-21.1 -25.1,-21.1 -0.8,0 -2.1,1.3 -3,2.9 z"
       id="path1150"
       style="fill:#000000;stroke:none;stroke-width:0.1" />
  </g>
</svg>
