<?xml version="1.0" standalone="no"?>
<!DOCTYPE svg PUBLIC "-//W3C//DTD SVG 20010904//EN"
 "http://www.w3.org/TR/2001/REC-SVG-20010904/DTD/svg10.dtd">
<svg version="1.0" xmlns="http://www.w3.org/2000/svg"
 width="12533.000000pt" height="12533.000000pt" viewBox="0 0 12533.000000 12533.000000"
 preserveAspectRatio="xMidYMid meet">
<g transform="translate(0.000000,12533.000000) scale(0.100000,-0.100000)"
fill="#000000" stroke="none">
<path d="M29675 92104 c-303 -45 -543 -160 -737 -356 -156 -158 -206 -248
-505 -918 -2108 -4724 -3300 -9779 -3523 -14940 -49 -1140 -47 -2460 5 -3610
329 -7200 2546 -14169 6447 -20260 2054 -3207 4583 -6148 7458 -8671 3310
-2905 7044 -5243 11125 -6964 4293 -1811 8878 -2870 13600 -3141 519 -29 1089
-7 2115 82 6776 588 12814 2929 18025 6988 2803 2183 5428 4906 7830 8121
1017 1362 1966 2770 2922 4335 1254 2054 2275 4100 3158 6330 1433 3617 2349
7476 2700 11370 229 2554 217 5161 -36 7705 -414 4165 -1460 8230 -3105 12072
-269 629 -531 1199 -596 1299 -170 260 -416 437 -727 522 -93 26 -105 27 -351
26 -442 -1 -1512 -80 -2440 -180 -6142 -660 -12044 -2694 -17280 -5957 -2331
-1453 -4469 -3104 -6495 -5016 -307 -289 -1237 -1216 -1521 -1516 -1831 -1933
-3495 -4061 -4862 -6220 -105 -165 -197 -309 -204 -319 -13 -18 -24 -4 -133
170 -1934 3077 -4356 5966 -7075 8440 -3281 2984 -7003 5403 -11070 7194
-4425 1948 -9214 3104 -14050 3389 -372 22 -629 32 -675 25z m1325 -2539
c1040 -82 2184 -222 3225 -396 4959 -826 9684 -2602 13955 -5244 3879 -2400
7327 -5499 10126 -9100 2522 -3245 4498 -6852 5884 -10740 124 -347 406 -1198
520 -1570 905 -2947 1451 -5968 1635 -9045 52 -870 69 -1588 62 -2570 -6 -771
-12 -995 -42 -1615 -172 -3493 -823 -6957 -1935 -10285 -216 -647 -571 -1630
-589 -1630 -4 0 -575 964 -1271 2143 -695 1178 -1872 3173 -2615 4432 -744
1260 -2046 3467 -2895 4905 -849 1438 -2405 4075 -3458 5860 -1053 1785 -2504
4244 -3225 5465 -720 1221 -1796 3044 -2390 4050 -594 1007 -1100 1862 -1125
1900 -61 92 -217 248 -316 315 -379 254 -840 287 -1245 88 -230 -113 -437
-321 -555 -556 -167 -333 -168 -757 -2 -1085 31 -61 10634 -18031 16703
-28306 238 -404 431 -736 428 -739 -6 -6 -399 37 -815 89 -4821 602 -9484
2111 -13750 4452 -4605 2526 -8652 5978 -11877 10129 -1886 2427 -3492 5104
-4741 7898 -1952 4371 -3065 9020 -3307 13810 -34 691 -40 942 -40 1905 0 965
5 1207 40 1915 227 4550 1263 9045 3044 13205 78 181 141 335 141 342 0 9 15
11 58 8 31 -3 199 -17 372 -30z m63846 -165 c1831 -4230 2898 -8831 3114
-13425 28 -593 32 -755 37 -1565 6 -873 -2 -1313 -32 -2000 -285 -6350 -2138
-12528 -5393 -17985 -1446 -2422 -3071 -4720 -4741 -6700 -1297 -1538 -2685
-2960 -4101 -4201 -4891 -4284 -10514 -6811 -16930 -7609 -301 -37 -922 -106
-926 -102 -1 1 22 63 52 137 493 1223 994 2684 1363 3975 513 1798 879 3504
1161 5415 28 184 59 365 69 402 11 37 47 210 81 385 861 4471 2373 8735 4478
12633 1590 2945 3502 5635 5682 7995 606 656 1316 1366 1950 1950 825 760
1732 1503 2405 1971 339 235 506 452 590 767 158 591 -151 1215 -717 1446
-181 74 -247 86 -473 86 -186 -1 -207 -3 -297 -28 -206 -57 -331 -128 -719
-407 -2031 -1464 -4431 -3813 -6331 -6197 -2532 -3176 -4594 -6657 -6158
-10398 -83 -198 -283 -688 -310 -760 -6 -15 -13 -26 -15 -23 -3 2 -20 155 -40
339 -545 5164 -2091 10231 -4524 14824 l-169 319 76 44 c172 97 317 234 428
402 34 52 117 185 184 295 447 731 1066 1657 1594 2385 2030 2801 4402 5295
7081 7446 3004 2411 6338 4350 9921 5770 3544 1404 7290 2275 11089 2579 171
13 330 26 355 28 25 2 53 3 64 3 14 -1 37 -46 102 -196z"/>
</g>
</svg>
