<?xml version="1.0" encoding="UTF-8" standalone="no"?>
<!-- Created with Inkscape (http://www.inkscape.org/) -->

<svg
   width="512.0px"
   height="512.0px"
   viewBox="0 0 512.0 512.0"
   version="1.1"
   id="SVGRoot"
   sodipodi:docname="vg-.svg"
   inkscape:version="1.2.2 (b0a8486541, 2022-12-01, custom)"
   xmlns:inkscape="http://www.inkscape.org/namespaces/inkscape"
   xmlns:sodipodi="http://sodipodi.sourceforge.net/DTD/sodipodi-0.dtd"
   xmlns="http://www.w3.org/2000/svg"
   xmlns:svg="http://www.w3.org/2000/svg">
  <sodipodi:namedview
     id="namedview9625"
     pagecolor="#ffffff"
     bordercolor="#000000"
     borderopacity="0.25"
     inkscape:showpageshadow="2"
     inkscape:pageopacity="0.0"
     inkscape:pagecheckerboard="0"
     inkscape:deskcolor="#d1d1d1"
     inkscape:document-units="px"
     showgrid="true"
     inkscape:zoom="0.56353712"
     inkscape:cx="368.20999"
     inkscape:cy="362.88648"
     inkscape:window-width="1366"
     inkscape:window-height="697"
     inkscape:window-x="0"
     inkscape:window-y="0"
     inkscape:window-maximized="1"
     inkscape:current-layer="layer1">
    <inkscape:grid
       type="xygrid"
       id="grid9748" />
  </sodipodi:namedview>
  <defs
     id="defs9620" />
  <g
     inkscape:label="Layer 1"
     inkscape:groupmode="layer"
     id="layer1">
    <rect
       style="fill:#ffffff;fill-opacity:1;fill-rule:evenodd;stroke-width:0.979803"
       id="rect3140"
       width="512"
       height="512"
       x="0.19713593"
       y="-3.5661306"
       rx="40.813637"
       ry="40.813637" />
    <g
       transform="matrix(0.08638341,0,0,-0.10006725,15.020472,487.25859)"
       fill="#000000"
       stroke="none"
       id="g9472"
       style="fill:#a9a9a9">
      <path
         d="m 4180,4689 c -107,-27 -316,-74 -465,-105 -304,-63 -412,-92 -503,-134 -153,-71 -331,-226 -430,-374 -150,-223 -234,-512 -218,-746 12,-185 34,-203 91,-75 119,269 421,618 625,724 74,39 179,75 188,66 8,-8 -44,-77 -129,-169 -272,-297 -533,-754 -749,-1316 -95,-246 -218,-593 -284,-805 -91,-286 -197,-605 -218,-654 l -20,-46 -13,26 c -23,43 -81,242 -186,644 -185,700 -263,950 -403,1298 -172,426 -315,649 -673,1047 -265,294 -567,514 -761,555 -29,6 -32,4 -32,-18 0,-17 33,-62 103,-143 383,-442 599,-763 833,-1237 143,-290 262,-606 404,-1077 179,-594 275,-969 426,-1670 41,-190 81,-368 89,-397 23,-79 33,-83 212,-83 83,0 163,4 178,10 52,20 78,126 155,625 95,617 187,1005 370,1555 135,405 284,723 364,775 13,9 100,32 193,51 92,18 208,48 257,65 233,80 429,215 569,390 135,168 169,286 207,719 14,164 24,220 66,369 19,69 34,138 34,153 0,26 -2,28 -42,27 -24,-1 -131,-23 -238,-50 z"
         id="path9470"
         style="fill:#a9a9a9" />
    </g>
    <text
       xml:space="preserve"
       style="font-weight:bold;font-size:266.667px;font-family:'Noto Sans CJK KR';-inkscape-font-specification:'Noto Sans CJK KR, Bold';opacity:0.99;fill:#a9a9a9;fill-opacity:0.592157;fill-rule:evenodd;stroke:#a9a9a9;stroke-width:3.77953;stroke-opacity:1"
       x="328.82925"
       y="423.60004"
       id="text10137"><tspan
         sodipodi:role="line"
         id="tspan10135"
         x="328.82925"
         y="423.60004"
         style="font-style:normal;font-variant:normal;font-weight:normal;font-stretch:normal;font-size:266.667px;font-family:P22Vincent;-inkscape-font-specification:'P22Vincent, Normal';font-variant-ligatures:normal;font-variant-caps:normal;font-variant-numeric:normal;font-variant-east-asian:normal;fill:#a9a9a9;fill-opacity:1;stroke:#a9a9a9;stroke-opacity:1">G</tspan></text>
    <path
       d="M 31.549496,1.9577838 C 20.955107,6.945973 10.48111,16.285562 4.822745,25.625145 l -4.33407252,7.32308 0.24078702,222.770385 0.3611749,222.66427 3.3709347,6.0495 c 4.0932895,7.42922 13.0022109,16.13203 21.6703399,21.43861 l 6.380718,3.92686 223.204483,-0.42455 c 181.4289,-0.21224 224.28803,-0.53064 228.3813,-1.69809 6.26031,-1.6981 18.41984,-12.62965 24.19854,-21.65084 l 3.8525,-6.04954 -0.24079,-225.31752 -0.36118,-225.211432 -3.25053,-4.882049 C 501.43467,14.375189 494.81317,8.4318048 484.33918,3.1252364 l -10.11282,-4.988189 H 256.92102 L 39.615682,-1.7568358 Z M 473.02246,17.77141 c 7.94578,3.820736 16.73432,11.462217 18.78099,16.132006 2.88937,6.792425 3.37088,40.330035 3.49133,232.746744 v 203.24218 l -3.25063,5.73109 c -4.09326,7.0047 -11.19628,13.58489 -19.02169,17.72401 l -5.89916,2.97168 -208.99839,0.10615 H 49.246941 l -8.066184,-3.50238 c -8.788522,-3.82071 -14.928455,-9.23344 -19.26252,-17.08717 L 19.149247,470.95367 18.788079,256.3554 18.426902,41.757159 21.436667,36.132176 C 28.53973,22.971861 38.893337,16.179426 53.460621,15.011983 58.39664,14.693594 153.14418,14.269062 264.02406,14.269062 l 201.53418,-0.212271 z"
       id="path1013"
       style="display:inline;fill:#ffffff;fill-opacity:1;stroke:#008000;stroke-width:0.33911;stroke-dasharray:none;stroke-opacity:1" />
    <rect
       style="fill:none;fill-rule:evenodd;stroke:#008000;stroke-width:15.11811024;stroke-dasharray:none;stroke-opacity:1"
       id="rect315"
       width="500.25858"
       height="500.25854"
       x="5.87075"
       y="5.87075"
       rx="39.683163"
       ry="40.441029" />
  </g>
</svg>
