<?xml version="1.0" encoding="UTF-8" standalone="no"?>
<!-- Created with Inkscape (http://www.inkscape.org/) -->

<svg
   width="512.0px"
   height="512.0px"
   viewBox="0 0 512.0 512.0"
   version="1.1"
   id="SVGRoot"
   sodipodi:docname="vgOF.svg"
   inkscape:version="1.2.2 (b0a8486541, 2022-12-01, custom)"
   xmlns:inkscape="http://www.inkscape.org/namespaces/inkscape"
   xmlns:sodipodi="http://sodipodi.sourceforge.net/DTD/sodipodi-0.dtd"
   xmlns="http://www.w3.org/2000/svg"
   xmlns:svg="http://www.w3.org/2000/svg">
  <sodipodi:namedview
     id="namedview9625"
     pagecolor="#ffffff"
     bordercolor="#000000"
     borderopacity="0.25"
     inkscape:showpageshadow="2"
     inkscape:pageopacity="0.0"
     inkscape:pagecheckerboard="0"
     inkscape:deskcolor="#d1d1d1"
     inkscape:document-units="px"
     showgrid="true"
     inkscape:zoom="0.39655618"
     inkscape:cx="276.12733"
     inkscape:cy="155.08521"
     inkscape:window-width="1366"
     inkscape:window-height="697"
     inkscape:window-x="0"
     inkscape:window-y="0"
     inkscape:window-maximized="1"
     inkscape:current-layer="layer1">
    <inkscape:grid
       type="xygrid"
       id="grid9748" />
  </sodipodi:namedview>
  <defs
     id="defs9620" />
  <g
     inkscape:label="Layer 1"
     inkscape:groupmode="layer"
     id="layer1">
    <rect
       style="fill:#ffffff;fill-opacity:1;fill-rule:evenodd;stroke-width:0.979803"
       id="rect3140"
       width="512"
       height="512"
       x="0.19713593"
       y="-3.5661306"
       rx="40.813637"
       ry="40.813637" />
    <g
       transform="matrix(0.08638341,0,0,-0.10006725,25.120319,487.25859)"
       fill="#000000"
       stroke="none"
       id="g9472"
       style="fill:#ffffff;stroke:#0d8c09;stroke-width:22.5117;stroke-dasharray:none;stroke-opacity:1">
      <path
         d="m 4180,4689 c -107,-27 -316,-74 -465,-105 -304,-63 -412,-92 -503,-134 -153,-71 -331,-226 -430,-374 -150,-223 -234,-512 -218,-746 12,-185 34,-203 91,-75 119,269 421,618 625,724 74,39 179,75 188,66 8,-8 -44,-77 -129,-169 -272,-297 -533,-754 -749,-1316 -95,-246 -218,-593 -284,-805 -91,-286 -197,-605 -218,-654 l -20,-46 -13,26 c -23,43 -81,242 -186,644 -185,700 -263,950 -403,1298 -172,426 -315,649 -673,1047 -265,294 -567,514 -761,555 -29,6 -32,4 -32,-18 0,-17 33,-62 103,-143 383,-442 599,-763 833,-1237 143,-290 262,-606 404,-1077 179,-594 275,-969 426,-1670 41,-190 81,-368 89,-397 23,-79 33,-83 212,-83 83,0 163,4 178,10 52,20 78,126 155,625 95,617 187,1005 370,1555 135,405 284,723 364,775 13,9 100,32 193,51 92,18 208,48 257,65 233,80 429,215 569,390 135,168 169,286 207,719 14,164 24,220 66,369 19,69 34,138 34,153 0,26 -2,28 -42,27 -24,-1 -131,-23 -238,-50 z"
         id="path9470"
         style="fill:#ffffff;stroke:#0d8c09;stroke-width:22.5117;stroke-dasharray:none;stroke-opacity:1" />
    </g>
    <text
       xml:space="preserve"
       style="font-weight:bold;font-size:266.667px;font-family:'Noto Sans CJK KR';-inkscape-font-specification:'Noto Sans CJK KR, Bold';opacity:0.99;fill:#ffffff;fill-opacity:0.592157;fill-rule:evenodd;stroke:#0d8c09;stroke-width:2.08000002;stroke-opacity:1;stroke-dasharray:none"
       x="328.82925"
       y="423.60004"
       id="text10137"><tspan
         sodipodi:role="line"
         id="tspan10135"
         x="328.82925"
         y="423.60004"
         style="font-style:normal;font-variant:normal;font-weight:normal;font-stretch:normal;font-size:266.667px;font-family:P22Vincent;-inkscape-font-specification:'P22Vincent, Normal';font-variant-ligatures:normal;font-variant-caps:normal;font-variant-numeric:normal;font-variant-east-asian:normal;fill:#ffffff;fill-opacity:1;stroke:#0d8c09;stroke-opacity:1;stroke-width:2.08000002;stroke-dasharray:none">G</tspan></text>
    <path
       d="M 31.974435,4.8242151 C 21.415114,9.7958934 10.975787,19.104568 5.3361525,28.413238 L 1.016426,35.712079 1.2564162,257.74508 1.6163954,479.67234 4.976172,485.70182 c 4.0797403,7.40463 12.959171,16.07863 21.598609,21.36764 l 6.359597,3.91387 222.465662,-0.42315 c 180.82834,-0.21154 223.54561,-0.52889 227.62532,-1.69247 6.23961,-1.69249 18.35888,-12.58784 24.11844,-21.57917 l 3.83975,-6.02952 -0.23999,-224.57173 -0.35999,-224.465966 -3.23977,-4.865889 C 500.30424,17.200519 493.70466,11.276808 483.26533,5.9878035 L 473.186,1.0161253 H 256.59996 L 40.013921,1.1218909 Z M 471.98608,20.585498 c 7.91948,3.80809 16.67893,11.424278 18.71882,16.078609 2.87981,6.769943 3.35973,40.196543 3.47978,231.976343 V 471.2099 l -3.23988,5.71212 c -4.07971,6.98151 -11.15921,13.53992 -18.95872,17.66535 l -5.87963,2.96184 -208.30659,0.10579 H 49.6133 l -8.039484,-3.49077 c -8.759432,-3.80808 -14.879041,-9.2029 -19.198759,-17.03062 L 19.615232,472.26771 19.25526,258.37978 18.895277,44.491855 21.89508,38.885489 C 28.974632,25.768736 39.293968,18.998784 53.813032,17.835205 58.732712,17.51787 153.16663,17.094743 263.67949,17.094743 l 200.86708,-0.211568 z"
       id="path1013"
       style="display:inline;fill:#ffffff;fill-opacity:1;stroke:#008000;stroke-width:2.03225;stroke-dasharray:none;stroke-opacity:1" />
  </g>
</svg>
