<?xml version="1.0" encoding="UTF-8" standalone="no"?>
<!-- Created with Inkscape (http://www.inkscape.org/) -->

<svg
   width="512.0px"
   height="512.0px"
   viewBox="0 0 512.0 512.0"
   version="1.1"
   id="SVGRoot"
   sodipodi:docname="or+.svg"
   inkscape:version="1.2.2 (b0a8486541, 2022-12-01, custom)"
   xmlns:inkscape="http://www.inkscape.org/namespaces/inkscape"
   xmlns:sodipodi="http://sodipodi.sourceforge.net/DTD/sodipodi-0.dtd"
   xmlns="http://www.w3.org/2000/svg"
   xmlns:svg="http://www.w3.org/2000/svg">
  <sodipodi:namedview
     id="namedview9625"
     pagecolor="#ffffff"
     bordercolor="#000000"
     borderopacity="0.25"
     inkscape:showpageshadow="2"
     inkscape:pageopacity="0.0"
     inkscape:pagecheckerboard="0"
     inkscape:deskcolor="#d1d1d1"
     inkscape:document-units="px"
     showgrid="true"
     inkscape:zoom="0.57434918"
     inkscape:cx="225.47259"
     inkscape:cy="366.50179"
     inkscape:window-width="1366"
     inkscape:window-height="697"
     inkscape:window-x="0"
     inkscape:window-y="0"
     inkscape:window-maximized="1"
     inkscape:current-layer="layer1">
    <inkscape:grid
       type="xygrid"
       id="grid9748" />
  </sodipodi:namedview>
  <defs
     id="defs9620" />
  <g
     inkscape:label="Layer 1"
     inkscape:groupmode="layer"
     id="layer1">
    <rect
       style="fill:#ffffff;fill-opacity:1;fill-rule:evenodd;stroke-width:0.979803"
       id="rect3140"
       width="512"
       height="512"
       x="0.19713593"
       y="-3.5661306"
       rx="40.813637"
       ry="40.813637" />
    <rect
       style="fill:#63b200;fill-rule:evenodd;stroke:#63b200;stroke-width:14.8473;stroke-dasharray:none;stroke-opacity:1;fill-opacity:1"
       id="rect10375"
       width="497.15274"
       height="497.15271"
       x="7.4236283"
       y="7.4236231"
       rx="38.374306"
       ry="39.808491" />
    <path
       d="m 55.202526,61.54711 c -1.845805,0.2944 -3.309806,1.0453 -4.491301,2.3275 -0.950733,1.0325 -1.255058,1.6213 -3.077088,6.0011 -12.847072,30.878 -20.111136,63.919 -21.469593,97.653 -0.298357,7.4517 -0.286423,16.079 0.02984,23.597 2.00496,47.061 15.516437,92.614 39.289907,132.43 12.517015,20.962 27.929958,40.186 45.451919,56.676 20.17266,18.989 42.92799,34.27 67.79886,45.519 26.16219,11.838 54.10428,18.758 82.88175,20.531 3.16259,0.18987 6.63752,0.0448 12.88903,-0.53545 41.29449,-3.8443 78.09219,-19.145 109.85136,-45.677 17.08188,-14.27 33.07943,-32.068 47.71758,-53.082 6.1979,-8.9024 11.98183,-18.106 17.80819,-28.335 7.64195,-13.425 13.86335,-26.799 19.2459,-41.376 8.73394,-23.642 14.31555,-48.866 16.45533,-74.319 1.39631,-16.693 1.32275,-33.734 -0.2188,-50.362 -2.52214,-27.223 -8.89701,-53.794 -18.92144,-78.908 -1.639,-4.1109 -3.23614,-7.8379 -3.63203,-8.4907 -1.03632,-1.7003 -2.53603,-2.8565 -4.42958,-3.4112 -0.56687,-0.17067 -0.64047,-0.17707 -2.13819,-0.17067 -2.69314,0.0064 -9.21523,0.52267 -14.87031,1.1776 -37.4317,4.3136 -73.39958,17.609 -105.31075,38.938 -14.20553,9.4976 -27.23627,20.288 -39.58173,32.787 -1.87173,1.888 -7.53846,7.9488 -9.26893,9.9093 -11.15856,12.636 -21.29897,26.545 -29.6306,40.657 -0.64046,1.0794 -1.20135,2.0202 -1.24312,2.0842 -0.0795,0.11728 -0.14724,0.0256 -0.81153,-1.1114 -11.78698,-20.113 -26.5454,-38.995 -43.11634,-55.166 -19.99552,-19.505 -42.67906,-35.315 -67.46229,-47.023 -26.96775,-12.732 -56.152675,-20.288 -85.624767,-22.153 -2.267514,-0.14288 -3.832863,-0.20907 -4.113319,-0.16427 z m 8.075502,16.595 c 6.337106,0.53546 13.310458,1.4507 19.653345,2.5877 30.221717,5.3995 59.016907,17.007 85.045767,34.276 23.64015,15.686 44.65195,35.942 61.71052,59.482 15.36912,21.21 27.41063,44.787 35.8588,70.199 0.75585,2.2677 2.4744,7.8315 3.16855,10.261 5.5156,19.262 8.84331,39.008 9.96326,59.121 0.31626,5.6875 0.41968,10.379 0.37791,16.798 -0.0358,5.0389 -0.0736,6.5045 -0.25659,10.556 -1.04825,22.831 -5.0164,45.474 -11.79349,67.226 -1.31678,4.2282 -3.47885,10.654 -3.59027,10.654 -0.0239,0 -3.50467,-6.3018 -7.74535,-14.007 -4.23471,-7.6992 -11.40936,-20.74 -15.936,-28.969 -4.53503,-8.2368 -12.46946,-22.662 -17.64316,-32.06 -5.17352,-9.3973 -14.65773,-26.635 -21.07427,-38.304 -6.41664,-11.669 -15.26004,-27.74 -19.65335,-35.721 -4.38781,-7.9808 -10.94598,-19.898 -14.56542,-26.473 -3.6201,-6.5814 -6.70315,-12.171 -6.85625,-12.418 -0.37196,-0.6016 -1.32275,-1.6213 -1.92543,-2.0586 -2.30928,-1.6598 -5.11981,-1.8752 -7.58824,-0.576 -1.40228,0.73813 -2.66331,2.0992 -3.38132,3.6352 -1.01843,2.176 -1.02439,4.9472 -0.0119,7.0912 0.18895,0.39893 64.8069,117.86 101.79573,185.02 1.45002,2.6411 2.6276,4.8107 2.60764,4.8299 -0.0358,0.0384 -2.43254,-0.24107 -4.96662,-0.5824 -29.37979,-3.9339 -57.79737,-13.798 -83.7964,-29.101 -28.06329,-16.51 -52.7281,-39.074 -72.381443,-66.206 -11.495142,-15.863 -21.281256,-33.361 -28.893093,-51.625 -11.896059,-28.57 -18.679022,-58.957 -20.153093,-90.268 -0.206864,-4.5163 -0.244652,-6.1568 -0.244652,-12.452 0,-6.3082 0.02983,-7.889 0.244652,-12.516 1.384378,-29.741 7.697615,-59.121 18.552221,-86.313 0.475385,-1.184 0.859268,-2.1888 0.859268,-2.2357 0,-0.05968 0.09146,-0.07248 0.354048,-0.05328 0.188962,0.0192 1.213288,0.11088 2.267514,0.19627 z m 389.095012,1.0795 c 11.15856,27.648 17.66088,57.722 18.97738,87.75 0.17106,3.8763 0.19493,4.9344 0.22477,10.229 0.0358,5.7067 -0.0119,8.5824 -0.19493,13.073 -1.73644,41.506 -13.02982,81.888 -32.86684,117.56 -8.81151,15.831 -18.71539,30.852 -28.89309,43.793 -7.90451,10.052 -16.36396,19.347 -24.99208,27.458 -29.80774,28.002 -64.07499,44.518 -103.17563,49.734 -1.83387,0.24105 -5.61899,0.69332 -5.64286,0.66772 -0.006,-0.006 0.13321,-0.41172 0.31626,-0.896 3.00538,-7.9936 6.0586,-17.545 8.30626,-25.982 3.12678,-11.753 5.35644,-22.903 7.07498,-35.394 0.17106,-1.2032 0.36003,-2.385 0.4197,-2.6282 0.0676,-0.24107 0.28643,-1.3718 0.49327,-2.5174 5.24717,-29.225 14.46193,-57.094 27.28942,-82.573 9.69102,-19.249 21.3428,-36.832 34.62715,-52.258 3.69366,-4.288 8.01984,-8.928 11.88487,-12.747 5.02834,-4.9685 10.55625,-9.824 14.65773,-12.883 2.06659,-1.536 3.08305,-2.9546 3.59623,-5.0133 0.96266,-3.8635 -0.92093,-7.9424 -4.36991,-9.4507 -1.10392,-0.48425 -1.50568,-0.56105 -2.88213,-0.56105 -1.13376,0.006 -1.26103,0.0192 -1.81,0.18345 -1.25506,0.37335 -2.0169,0.83628 -4.38184,2.6603 -12.3781,9.5701 -27.00319,24.924 -38.58318,40.506 -15.43066,20.759 -27.99802,43.511 -37.5296,67.966 -0.50522,1.2949 -1.7245,4.497 -1.88962,4.9685 -0.0358,0.0981 -0.0795,0.17067 -0.0915,0.14928 -0.0179,-0.0128 -0.12128,-1.0133 -0.24465,-2.2165 -3.32174,-33.754 -12.74358,-66.874 -27.57007,-96.894 l -1.03035,-2.0843 0.46345,-0.288 c 1.04826,-0.6336 1.93139,-1.5296 2.60764,-2.6283 0.20685,-0.3392 0.71207,-1.2096 1.12182,-1.9285 2.72503,-4.7787 6.49626,-10.831 9.71432,-15.588 12.37157,-18.308 26.82604,-34.609 43.15457,-48.67 18.30701,-15.759 38.62513,-28.433 60.46114,-37.715 21.59919,-9.1776 44.42724,-14.869 67.57976,-16.858 1.04229,-0.08528 2.01093,-0.17067 2.16411,-0.18347 0.15315,-0.0128 0.32223,-0.0192 0.38985,-0.0192 0.0855,0.0064 0.22477,0.3008 0.62257,1.2821 z"
       fill="#808000"
       stroke-width="2.0599"
       id="path198"
       style="fill:#ffffff;fill-opacity:1" />
  </g>
</svg>
