<?xml version="1.0" encoding="UTF-8" standalone="no"?>
<!-- Created with Inkscape (http://www.inkscape.org/) -->

<svg
   width="512.0px"
   height="512.0px"
   viewBox="0 0 512.0 512.0"
   version="1.1"
   id="SVGRoot"
   sodipodi:docname="kt.svg"
   inkscape:version="1.2.1 (8a69933317, 2022-10-28, custom)"
   xmlns:inkscape="http://www.inkscape.org/namespaces/inkscape"
   xmlns:sodipodi="http://sodipodi.sourceforge.net/DTD/sodipodi-0.dtd"
   xmlns="http://www.w3.org/2000/svg"
   xmlns:svg="http://www.w3.org/2000/svg">
  <sodipodi:namedview
     id="namedview9625"
     pagecolor="#ffffff"
     bordercolor="#000000"
     borderopacity="0.25"
     inkscape:showpageshadow="2"
     inkscape:pageopacity="0.0"
     inkscape:pagecheckerboard="0"
     inkscape:deskcolor="#d1d1d1"
     inkscape:document-units="px"
     showgrid="true"
     inkscape:zoom="0.56353712"
     inkscape:cx="364.66098"
     inkscape:cy="362.88648"
     inkscape:window-width="1366"
     inkscape:window-height="697"
     inkscape:window-x="0"
     inkscape:window-y="0"
     inkscape:window-maximized="1"
     inkscape:current-layer="layer1">
    <inkscape:grid
       type="xygrid"
       id="grid9748" />
  </sodipodi:namedview>
  <defs
     id="defs9620" />
  <g
     inkscape:label="Layer 1"
     inkscape:groupmode="layer"
     id="layer1">
    <rect
       style="fill:#ffffff;fill-opacity:1;fill-rule:evenodd;stroke-width:0.979803"
       id="rect3140"
       width="512"
       height="512"
       x="0.19713593"
       y="-3.5661306"
       rx="40.813637"
       ry="40.813637" />
    <path
       d="M 31.549496,1.9577838 C 20.955107,6.945973 10.48111,16.285562 4.822745,25.625145 l -4.33407252,7.32308 0.24078702,222.770385 0.3611749,222.66427 3.3709347,6.0495 c 4.0932895,7.42922 13.0022109,16.13203 21.6703399,21.43861 l 6.380718,3.92686 223.204483,-0.42455 c 181.4289,-0.21224 224.28803,-0.53064 228.3813,-1.69809 6.26031,-1.6981 18.41984,-12.62965 24.19854,-21.65084 l 3.8525,-6.04954 -0.24079,-225.31752 -0.36118,-225.211432 -3.25053,-4.882049 C 501.43467,14.375189 494.81317,8.4318048 484.33918,3.1252364 l -10.11282,-4.988189 H 256.92102 L 39.615682,-1.7568358 Z M 473.02246,17.77141 c 7.94578,3.820736 16.73432,11.462217 18.78099,16.132006 2.88937,6.792425 3.37088,40.330035 3.49133,232.746744 v 203.24218 l -3.25063,5.73109 c -4.09326,7.0047 -11.19628,13.58489 -19.02169,17.72401 l -5.89916,2.97168 -208.99839,0.10615 H 49.246941 l -8.066184,-3.50238 c -8.788522,-3.82071 -14.928455,-9.23344 -19.26252,-17.08717 L 19.149247,470.95367 18.788079,256.3554 18.426902,41.757159 21.436667,36.132176 C 28.53973,22.971861 38.893337,16.179426 53.460621,15.011983 58.39664,14.693594 153.14418,14.269062 264.02406,14.269062 l 201.53418,-0.212271 z"
       id="path1013"
       style="display:inline;fill:#0080ff;fill-opacity:1;stroke:none;stroke-width:0.33911;stroke-dasharray:none;stroke-opacity:1" />
    <path
       d="M 261.24371,35.271788 C 213.64212,86.982005 168.38455,155.92896 149.4521,205.36619 c -8.29423,21.9721 -15.86721,50.1949 -18.93246,71.97759 -3.9668,25.76041 -2.52433,66.29515 2.88495,87.13077 14.42473,56.06674 55.7155,98.49564 109.80821,112.89116 21.99771,5.87185 56.25644,4.54596 76.81167,-2.84122 28.48882,-10.22839 51.02746,-31.06402 64.19001,-58.90798 11.5398,-24.81332 13.34288,-34.85231 13.16257,-72.92466 -0.18031,-30.11694 -0.54092,-34.66289 -5.04866,-50.19489 -6.49112,-22.72977 -17.67027,-46.21719 -47.24096,-98.49565 C 303.43603,120.50841 290.9947,91.906778 280.17616,45.689593 277.47153,34.1353 274.40628,24.47515 273.14411,24.47515 c -1.08186,0 -6.49113,4.924773 -11.9004,10.796638 z M 219.05139,157.25485 c -5.95021,48.49017 2.34402,86.56252 28.48883,132.02205 7.03206,12.12256 15.14596,28.60163 18.21122,36.36763 14.24442,37.69353 1.26216,71.21992 -31.7344,81.63774 -14.24441,4.54596 -22.71894,3.97771 -36.60275,-2.84122 -22.53862,-10.98606 -38.22551,-43.18655 -40.02861,-81.63774 -2.1637,-48.67957 8.65485,-89.78258 39.30739,-150.58469 11.72009,-23.29801 23.07956,-42.4289 24.34172,-41.103 0.54093,0.56825 -0.36062,12.31196 -1.9834,26.13923 z"
       id="path1015"
       style="display:inline;fill:#0080ff;fill-opacity:1;stroke:#0080ff;stroke-width:4.9019;stroke-dasharray:none;stroke-opacity:1" />
  </g>
</svg>
