<?xml version="1.0" encoding="UTF-8" standalone="no"?>
<!-- Created with Inkscape (http://www.inkscape.org/) -->

<svg
   width="512.0px"
   height="512.0px"
   viewBox="0 0 512.0 512.0"
   version="1.1"
   id="SVGRoot"
   sodipodi:docname="kt.svg"
   inkscape:version="1.2.1 (8a69933317, 2022-10-28, custom)"
   xmlns:inkscape="http://www.inkscape.org/namespaces/inkscape"
   xmlns:sodipodi="http://sodipodi.sourceforge.net/DTD/sodipodi-0.dtd"
   xmlns="http://www.w3.org/2000/svg"
   xmlns:svg="http://www.w3.org/2000/svg">
  <sodipodi:namedview
     id="namedview9625"
     pagecolor="#ffffff"
     bordercolor="#000000"
     borderopacity="0.25"
     inkscape:showpageshadow="2"
     inkscape:pageopacity="0.0"
     inkscape:pagecheckerboard="0"
     inkscape:deskcolor="#d1d1d1"
     inkscape:document-units="px"
     showgrid="true"
     inkscape:zoom="0.56353712"
     inkscape:cx="371.75901"
     inkscape:cy="361.11197"
     inkscape:window-width="1366"
     inkscape:window-height="697"
     inkscape:window-x="0"
     inkscape:window-y="0"
     inkscape:window-maximized="1"
     inkscape:current-layer="layer1">
    <inkscape:grid
       type="xygrid"
       id="grid9748" />
  </sodipodi:namedview>
  <defs
     id="defs9620" />
  <g
     inkscape:label="Layer 1"
     inkscape:groupmode="layer"
     id="layer1">
    <rect
       style="fill:#ffffff;fill-opacity:1;fill-rule:evenodd;stroke-width:0.979803"
       id="rect3140"
       width="512"
       height="512"
       x="0.19713593"
       y="-3.5661306"
       rx="40.813637"
       ry="40.813637" />
    <path
       d="M 31.549496,1.9577838 C 20.955107,6.945973 10.48111,16.285562 4.822745,25.625145 l -4.33407252,7.32308 0.24078702,222.770385 0.3611749,222.66427 3.3709347,6.0495 c 4.0932895,7.42922 13.0022109,16.13203 21.6703399,21.43861 l 6.380718,3.92686 223.204483,-0.42455 c 181.4289,-0.21224 224.28803,-0.53064 228.3813,-1.69809 6.26031,-1.6981 18.41984,-12.62965 24.19854,-21.65084 l 3.8525,-6.04954 -0.24079,-225.31752 -0.36118,-225.211432 -3.25053,-4.882049 C 501.43467,14.375189 494.81317,8.4318048 484.33918,3.1252364 l -10.11282,-4.988189 H 256.92102 L 39.615682,-1.7568358 Z M 473.02246,17.77141 c 7.94578,3.820736 16.73432,11.462217 18.78099,16.132006 2.88937,6.792425 3.37088,40.330035 3.49133,232.746744 v 203.24218 l -3.25063,5.73109 c -4.09326,7.0047 -11.19628,13.58489 -19.02169,17.72401 l -5.89916,2.97168 -208.99839,0.10615 H 49.246941 l -8.066184,-3.50238 c -8.788522,-3.82071 -14.928455,-9.23344 -19.26252,-17.08717 L 19.149247,470.95367 18.788079,256.3554 18.426902,41.757159 21.436667,36.132176 C 28.53973,22.971861 38.893337,16.179426 53.460621,15.011983 58.39664,14.693594 153.14418,14.269062 264.02406,14.269062 l 201.53418,-0.212271 z"
       id="path1013"
       style="display:inline;fill:#000d1a;fill-opacity:1;stroke:#000d1a;stroke-width:0.33911;stroke-dasharray:none;stroke-opacity:1" />
    <ellipse
       style="opacity:0.99;fill:#ffe400;fill-opacity:1;fill-rule:evenodd;stroke:none;stroke-width:2.66642;stroke-opacity:1"
       id="path9698"
       cx="229.97359"
       cy="284.95663"
       rx="80.748848"
       ry="156.1998" />
    <path
       d="M 261.17852,26.208777 C 211.59353,80.073586 164.45023,151.89333 144.72893,203.39045 c -8.63982,22.8876 -16.52834,52.28635 -19.72131,74.97665 -4.13209,26.83376 -2.62951,69.05745 3.00515,90.76122 15.02576,58.40286 58.03698,102.59963 114.38356,117.59496 22.91428,6.11651 58.60045,4.73537 80.01215,-2.95961 29.67586,-10.65457 53.15361,-32.35835 66.8646,-61.36247 12.02062,-25.84721 13.89883,-36.30449 13.71101,-75.96319 -0.18783,-31.37181 -0.56346,-36.10718 -5.25902,-52.28635 -6.76159,-23.67684 -18.40654,-48.1429 -49.20934,-102.59963 -43.38687,-76.55511 -56.34659,-106.348472 -67.6159,-154.491373 -2.81733,-12.035722 -6.0103,-22.098378 -7.32506,-22.098378 -1.12693,0 -6.76159,5.129972 -12.39625,11.246498 z M 217.22819,153.27447 c -6.19813,50.51059 2.44169,90.16929 29.67587,137.52297 7.32506,12.62766 15.77704,29.79336 18.97002,37.88294 14.83793,39.2641 1.31475,74.18742 -33.05667,85.03932 -14.83793,4.73537 -23.66556,4.14344 -38.12786,-2.95961 -23.47773,-11.44381 -39.81824,-44.98599 -41.69647,-85.03931 -2.25386,-50.70789 9.01546,-93.52352 40.94519,-156.85905 12.20843,-24.26876 24.04121,-44.19677 25.35596,-42.81563 0.56347,0.59193 -0.37564,12.82496 -2.06604,27.22837 z"
       id="path1015"
       style="display:inline;fill:#000d1a;fill-opacity:1;stroke-width:0.192506" />
  </g>
</svg>
