<?xml version="1.0" encoding="UTF-8" standalone="no"?>
<!-- Created with Inkscape (http://www.inkscape.org/) -->

<svg
   width="512.0px"
   height="512.0px"
   viewBox="0 0 512.0 512.0"
   version="1.1"
   id="SVGRoot"
   sodipodi:docname="locallysourced.svg"
   inkscape:version="1.2.1 (0f2f062aeb, 2022-09-21, custom)"
   xmlns:inkscape="http://www.inkscape.org/namespaces/inkscape"
   xmlns:sodipodi="http://sodipodi.sourceforge.net/DTD/sodipodi-0.dtd"
   xmlns="http://www.w3.org/2000/svg"
   xmlns:svg="http://www.w3.org/2000/svg">
  <sodipodi:namedview
     id="namedview137"
     pagecolor="#ffffff"
     bordercolor="#000000"
     borderopacity="0.25"
     inkscape:showpageshadow="2"
     inkscape:pageopacity="0.0"
     inkscape:pagecheckerboard="0"
     inkscape:deskcolor="#d1d1d1"
     inkscape:document-units="px"
     showgrid="true"
     inkscape:zoom="0.71385146"
     inkscape:cx="250.05202"
     inkscape:cy="185.61284"
     inkscape:window-width="1366"
     inkscape:window-height="697"
     inkscape:window-x="0"
     inkscape:window-y="0"
     inkscape:window-maximized="1"
     inkscape:current-layer="layer1">
    <inkscape:grid
       type="xygrid"
       id="grid260" />
  </sodipodi:namedview>
  <defs
     id="defs132">
    <clipPath
       id="b">
      <path
         d="M 139.21,457 H 612.79 V 612.79 H 139.21 Z"
         id="path1575" />
    </clipPath>
    <clipPath
       id="a">
      <path
         d="M 139.21,139.21 H 612.79 V 295 H 139.21 Z"
         id="path1578" />
    </clipPath>
  </defs>
  <g
     inkscape:label="Layer 1"
     inkscape:groupmode="layer"
     id="layer1">
    <path
       d="m 241.6442,3.4371405 c -21.17172,2.5965251 -41.94399,8.9879965 -61.91732,19.0745255 -19.474,9.786935 -30.75894,18.075871 -46.93734,34.254271 -15.87879,15.8788 -24.36746,27.263597 -33.854789,45.938663 -14.181074,27.96267 -19.973337,54.82679 -18.774937,86.88399 1.098537,27.2636 9.2876,60.01988 24.667066,97.76947 30.15973,74.40067 65.6124,132.32333 111.25146,182.05693 12.98266,14.08119 30.8588,30.65907 37.25026,34.45399 3.09588,1.7976 4.99334,2.29694 7.09054,1.7976 3.69506,-0.79892 13.482,-8.78826 28.1624,-23.0692 6.2916,-6.19172 12.68306,-12.18372 14.0812,-13.28226 4.39414,-3.39546 17.47666,-11.28493 35.85213,-21.5712 32.3568,-18.07586 48.43533,-29.86013 66.2116,-48.43533 22.27026,-23.26893 36.65106,-50.932 43.84146,-84.38733 1.99734,-9.48733 2.29694,-13.68173 2.19707,-30.45933 -0.0998,-26.3648 -3.8948,-49.434 -12.5832,-75.39934 -5.59253,-16.7776 -10.58587,-26.66439 -13.98133,-27.8628 -3.99467,-1.39812 -6.79093,1.59788 -12.78293,13.68174 -8.3888,16.7776 -14.48067,24.16774 -44.0412,53.6284 -34.35414,34.25426 -43.24226,44.74026 -51.13174,60.41933 -12.38346,24.76693 -17.57652,57.02387 -16.87746,105.1596 0.19974,7.58986 0.49934,10.28626 1.39814,9.98666 1.7976,-0.5992 16.37812,-20.17306 27.36346,-36.5512 25.56586,-38.44866 40.7456,-67.60973 63.71493,-123.23545 1.498,-3.5952 3.49533,-7.29028 4.39413,-8.0892 4.99334,-4.494 12.18374,-1.59788 12.18374,4.89346 0,9.18774 -30.5592,74.9 -49.23427,105.7588 -26.16507,43.44199 -47.43667,71.10506 -79.19427,103.06239 -10.58586,10.58586 -19.87346,19.27426 -20.6724,19.27426 -2.29692,0 -32.0572,-29.26092 -43.84146,-43.14239 -38.948,-45.5392 -70.30613,-99.4672 -97.86933,-168.0756 -10.28626,-25.36612 -19.973333,-60.5192 -21.870796,-79.394 -2.3968,-22.17039 0.499337,-47.33679 7.689736,-68.00919 14.58053,-41.844133 44.34079,-75.698934 83.78813,-95.172934 28.66173,-14.181065 54.62706,-19.1744 86.08506,-16.7776 22.96934,1.897471 36.05186,5.193071 55.22626,14.280935 34.454,16.378136 63.71494,47.236933 76.89734,81.091729 3.79493,9.5872 5.49266,16.1784 7.98933,30.05987 2.0972,12.08387 3.5952,14.58053 8.58853,14.58053 4.69373,0 6.39147,-2.89613 6.39147,-10.98533 -0.0998,-12.2836 -5.0932,-30.65907 -13.08253,-47.836133 C 391.94354,49.875137 346.5042,15.321266 291.0782,5.2347372 282.3898,3.6368656 249.63354,2.5383405 241.6442,3.4371405 Z"
       id="path1146"
       style="fill:#008080;stroke:none;stroke-width:0.0998664" />
    <path
       d="m 246.1382,109.19593 c -13.88146,2.996 -25.56586,9.48734 -36.05186,19.97334 -13.1824,13.1824 -19.57386,28.66172 -19.57386,47.936 -0.0998,17.57652 4.89346,31.85746 15.37946,44.24092 13.58187,15.8788 31.458,24.16774 52.52986,24.2676 12.5832,0 20.87214,-1.89746 32.15708,-7.39012 6.8908,-3.39548 10.1864,-5.79228 17.47666,-13.1824 7.39014,-7.29028 9.8868,-10.58588 13.28226,-17.57654 4.99334,-10.1864 7.1904,-19.37413 7.1904,-30.8588 0,-19.27426 -6.2916,-34.25426 -19.97332,-48.03586 -7.09054,-7.1904 -9.98668,-9.38747 -17.976,-13.28227 -14.3808,-6.99067 -30.45934,-9.18773 -44.44068,-6.09187 z m 25.36614,14.98 c 41.74426,9.8868 56.12506,60.71894 25.66574,90.87866 -20.972,20.87214 -53.6284,21.2716 -75.29947,1.09854 -4.89347,-4.59386 -7.29027,-7.88946 -10.98533,-15.37946 l -4.69374,-9.48734 v -14.0812 -14.0812 l 4.29427,-8.78826 c 11.3848,-23.3688 36.75093,-35.85214 61.01853,-30.15974 z"
       id="path1148"
       style="fill:#008080;stroke:none;stroke-width:0.0998664" />
    <path
       d="m 229.16088,306.33273 c -3.5952,7.1904 -9.5872,32.956 -10.98534,48.13573 -1.39813,14.3808 2.89614,36.15173 9.98666,51.63106 9.38748,20.17307 34.454,49.1344 42.5432,49.1344 5.992,0 11.3848,-18.5752 13.98134,-48.43533 3.09586,-34.85346 -4.69374,-58.32213 -27.46334,-82.29013 -7.58986,-7.98933 -23.16906,-21.07187 -25.06652,-21.07187 -0.79894,0 -2.0972,1.29827 -2.996,2.89614 z"
       id="path1150"
       style="fill:#008080;stroke:none;stroke-width:0.0998664" />
  </g>
</svg>
