<?xml version="1.0" encoding="UTF-8" standalone="no"?>
<svg
   version="1.0"
   width="216.000000pt"
   height="233.000000pt"
   viewBox="0 0 216.000000 233.000000"
   preserveAspectRatio="xMidYMid meet"
   id="svg1753"
   sodipodi:docname="logo.svg"
   inkscape:version="1.2.1 (0f2f062aeb, 2022-09-21, custom)"
   xmlns:inkscape="http://www.inkscape.org/namespaces/inkscape"
   xmlns:sodipodi="http://sodipodi.sourceforge.net/DTD/sodipodi-0.dtd"
   xmlns="http://www.w3.org/2000/svg"
   xmlns:svg="http://www.w3.org/2000/svg">
  <defs
     id="defs1757" />
  <sodipodi:namedview
     id="namedview1755"
     pagecolor="#ffffff"
     bordercolor="#000000"
     borderopacity="0.25"
     inkscape:showpageshadow="2"
     inkscape:pageopacity="0.0"
     inkscape:pagecheckerboard="0"
     inkscape:deskcolor="#d1d1d1"
     inkscape:document-units="pt"
     showgrid="false"
     inkscape:zoom="0.53687478"
     inkscape:cx="358.55661"
     inkscape:cy="231.89765"
     inkscape:window-width="1366"
     inkscape:window-height="697"
     inkscape:window-x="0"
     inkscape:window-y="0"
     inkscape:window-maximized="1"
     inkscape:current-layer="g1751" />
  <metadata
     id="metadata1741">
Created by potrace 1.16, written by Peter Selinger 2001-2019
</metadata>
  <g
     transform="translate(0.000000,233.000000) scale(0.100000,-0.100000)"
     fill="#000000"
     stroke="none"
     id="g1751">
    <path
       d="M0 1165 l0 -1165 1080 0 1080 0 0 1165 0 1165 -1080 0 -1080 0 0 -1165z m1113 919 c18 -10 49 -34 69 -55 43 -45 106 -79 144 -79 27 0 87 -52 131 -114 l21 -30 31 26 c43 37 83 44 128 21 39 -18 45 -31 58 -116 7 -42 47 -86 130 -140 48 -31 50 -34 53 -83 5 -79 -47 -229 -99 -288 -75 -85 -190 -123 -277 -93 -57 20 -88 10 -155 -46 -28 -25 -75 -56 -103 -70 -57 -29 -64 -40 -64 -102 0 -50 8 -77 21 -69 5 3 9 -46 9 -113 l0 -118 58 -85 c63 -93 47 -86 169 -76 29 2 50 0 47 -5 -3 -5 0 -9 5 -9 6 0 11 5 11 10 0 19 49 10 64 -12 9 -12 16 -26 16 -30 0 -5 -216 -8 -480 -8 -264 0 -480 3 -480 8 1 20 28 41 47 36 12 -3 30 -1 41 5 12 7 31 7 51 1 17 -5 31 -5 31 0 0 4 11 7 25 5 14 -1 25 2 25 7 0 5 5 6 11 2 18 -10 98 37 118 70 23 37 55 222 48 274 -2 20 -14 62 -25 92 -11 30 -25 74 -32 98 -9 34 -20 48 -58 72 -61 39 -92 47 -106 29 -21 -28 -61 -49 -91 -49 -36 0 -55 15 -55 45 0 34 -17 43 -63 33 -108 -22 -109 -22 -123 -3 -17 23 -18 79 -3 107 10 18 9 20 -7 14 -9 -4 -43 -9 -75 -13 -73 -7 -92 4 -76 47 9 24 8 32 -7 49 -33 36 -7 113 47 142 11 6 30 6 53 0 l36 -10 -6 30 c-5 26 0 35 31 63 34 32 35 35 24 66 -6 18 -11 52 -11 75 0 55 49 130 105 163 40 23 75 25 160 7 28 -6 32 -4 49 35 14 31 34 52 79 81 33 21 67 48 75 60 38 55 115 73 175 43z"
       id="path1743"
       style="fill:#758000;fill-opacity:1" />
    <path
       d="m 1092.7622,1259.0843 c -4.4818,-4.5732 3.7186,-51.2621 5.4052,-65.1602 2.1684,-17.8689 5.6284,-21.4784 12.6064,-12.5729 5.2335,6.6791 27.6925,56.8767 24.2615,68.5483 -2.4383,11.7922 -38.7841,13.6376 -42.2731,9.1848 z"
       id="path1745"
       sodipodi:nodetypes="csscc"
       style="fill:#808000" />
    <path
       d="m 1156,1198 c -17,-41 -39,-148 -33,-155 3,-3 88.6339,15.8573 107.6339,30.8573 39,30 56,69 37,88 -13,13 -67.9065,34.9141 -54.9065,26.9141 5,-3 -2.7274,10.2286 0.2726,21.2286 4,16 0,20 -19,20 -19,0 -28,-8 -38,-32 z"
       id="path1747"
       sodipodi:nodetypes="cccsccsc"
       style="fill:#808000" />
    <path
       d="m 1036,1173 c -8,-17 -72.87727,-19.3278 -81.87727,-22.3278 C 931.12273,1141.6722 987,1075 1013,1044 l 24,-27 16,60 c 19,67 21,92 8,112 -7,11 -13,7 -25,-16 z"
       id="path1749"
       sodipodi:nodetypes="ccccccc"
       style="fill:#808000;stroke:#808000" />
  </g>
  <circle
     id="path2089"
     style="fill:#31328f;stroke:#000000;stroke-width:0.75"
     cx="427.62921"
     cy="49.681152"
     r="0.27777091" />
</svg>
