<?xml version="1.0" encoding="UTF-8" standalone="no"?>
<!-- Created with Inkscape (http://www.inkscape.org/) -->

<svg
   width="512.0px"
   height="512.0px"
   viewBox="0 0 512.0 512.0"
   version="1.1"
   id="SVGRoot"
   sodipodi:docname="organic.svg"
   inkscape:version="1.2.1 (0f2f062aeb, 2022-09-21, custom)"
   xmlns:inkscape="http://www.inkscape.org/namespaces/inkscape"
   xmlns:sodipodi="http://sodipodi.sourceforge.net/DTD/sodipodi-0.dtd"
   xmlns="http://www.w3.org/2000/svg"
   xmlns:svg="http://www.w3.org/2000/svg">
  <sodipodi:namedview
     id="namedview137"
     pagecolor="#ffffff"
     bordercolor="#000000"
     borderopacity="0.25"
     inkscape:showpageshadow="2"
     inkscape:pageopacity="0.0"
     inkscape:pagecheckerboard="0"
     inkscape:deskcolor="#d1d1d1"
     inkscape:document-units="px"
     showgrid="true"
     inkscape:zoom="0.82106903"
     inkscape:cx="191.82309"
     inkscape:cy="275.85987"
     inkscape:window-width="1366"
     inkscape:window-height="697"
     inkscape:window-x="0"
     inkscape:window-y="0"
     inkscape:window-maximized="1"
     inkscape:current-layer="layer1">
    <inkscape:grid
       type="xygrid"
       id="grid260" />
  </sodipodi:namedview>
  <defs
     id="defs132" />
  <g
     inkscape:label="Layer 1"
     inkscape:groupmode="layer"
     id="layer1">
    <path
       d="m 39.668126,63.55626 c -1.979728,0.2944 -3.549872,1.045328 -4.817072,2.327456 -1.019728,1.032544 -1.346128,1.621344 -3.300256,6.001072 -13.7792,30.877872 -21.570144,63.918932 -23.0272,97.653332 -0.32,7.45172 -0.3072,16.07892 0.032,23.5968 2.1504,47.06132 16.642128,92.6144 42.139728,132.42667 13.425072,20.96213 29.956272,40.1856 48.748804,56.67625 21.63627,18.9888 46.0416,34.26988 72.7168,45.51893 28.05972,11.83787 58.0288,18.7584 88.89385,20.5312 3.392,0.18987 7.11895,0.0448 13.824,-0.53545 44.29015,-3.84428 83.7568,-19.14455 117.8176,-45.6768 18.32107,-14.26988 35.47947,-32.06828 51.17867,-53.0816 6.64746,-8.9024 12.8512,-18.1056 19.09973,-28.33493 8.19627,-13.42507 14.86933,-26.79895 20.64213,-41.376 9.36747,-23.6416 15.3536,-48.86615 17.64907,-74.31895 1.4976,-16.69332 1.41867,-33.7344 -0.23467,-50.36158 -2.70506,-27.22347 -9.5424,-53.79414 -20.2944,-78.907744 -1.75786,-4.110928 -3.47093,-7.837856 -3.89546,-8.490656 -1.11147,-1.700272 -2.72,-2.856544 -4.75094,-3.4112 -0.608,-0.170672 -0.68693,-0.177072 -2.29333,-0.170672 -2.88853,0.0064 -9.88373,0.522672 -15.9488,1.1776 -40.1472,4.3136 -78.72425,17.608528 -112.9472,38.937602 -15.23625,9.4976 -29.21173,20.288 -42.45333,32.7872 -2.00747,1.888 -8.08532,7.9488 -9.94132,9.90933 -11.968,12.63574 -22.84375,26.54507 -31.78028,40.65707 -0.68692,1.07945 -1.28852,2.02025 -1.33332,2.08425 -0.0853,0.11728 -0.15792,0.0256 -0.8704,-1.11145 -12.64215,-20.11307 -28.47148,-38.9952 -46.24428,-55.16587 C 186.83185,113.39306 162.50333,97.58292 135.922,85.875188 106.99825,73.14346 75.695854,65.587188 44.086254,63.72266 c -2.432,-0.14288 -4.110928,-0.209072 -4.411728,-0.164272 z m 8.661328,16.5952 c 6.7968,0.535456 14.276272,1.450656 21.079472,2.587728 32.413874,5.399472 63.298124,17.006932 91.214924,34.276272 25.35468,15.6864 47.8912,35.9424 66.18668,59.48158 16.48425,21.2096 29.39945,44.7872 38.45972,70.19948 0.81068,2.26772 2.65388,7.83147 3.3984,10.26132 5.91573,19.26188 9.4848,39.008 10.68588,59.12108 0.3392,5.68747 0.45012,10.37867 0.40532,16.79787 -0.0384,5.03893 -0.0789,6.50453 -0.2752,10.55573 -1.12427,22.83092 -5.38027,45.47412 -12.64852,67.2256 -1.41228,4.22825 -3.7312,10.65385 -3.85068,10.65385 -0.0256,0 -3.75892,-6.30185 -8.3072,-14.00745 -4.54187,-7.6992 -12.2368,-20.74028 -17.09227,-28.96853 -4.864,-8.2368 -13.37385,-22.6624 -18.92265,-32.05975 -5.5488,-9.39732 -15.72055,-26.63465 -22.60268,-38.304 -6.88212,-11.66932 -16.36692,-27.73972 -21.07947,-35.72052 -4.70613,-7.9808 -11.73973,-19.8976 -15.62238,-26.47253 -3.88267,-6.58135 -7.18935,-12.17067 -7.3536,-12.41815 -0.39895,-0.6016 -1.41867,-1.62132 -2.06507,-2.05865 -2.4768,-1.65975 -5.4912,-1.8752 -8.13868,-0.576 -1.504,0.73813 -2.85652,2.0992 -3.62665,3.6352 -1.09227,2.176 -1.09867,4.9472 -0.0128,7.0912 0.20265,0.39893 69.50825,117.856 109.17758,185.01758 1.5552,2.64107 2.81815,4.81067 2.7968,4.82987 -0.0384,0.0384 -2.60905,-0.24107 -5.32693,-0.5824 -31.51147,-3.93387 -61.9904,-13.7984 -89.8752,-29.1008 -30.0992,-16.50987 -56.55252,-39.07412 -77.631996,-66.20585 -12.328528,-15.86347 -22.824528,-33.36107 -30.9888,-51.62455 -12.759456,-28.5696 -20.034128,-58.9568 -21.614928,-90.26772 -0.221872,-4.51628 -0.2624,-6.1568 -0.2624,-12.45228 0,-6.30825 0.032,-7.88905 0.2624,-12.51625 1.4848,-29.7408 8.256,-59.12107 19.8976,-86.31253 0.509872,-1.184 0.9216,-2.1888 0.9216,-2.235744 0,-0.05968 0.09808,-0.07248 0.379728,-0.05328 0.202672,0.0192 1.301344,0.110881 2.432,0.196273 z m 417.318396,1.079456 c 11.968,27.648004 18.94186,57.721604 20.35413,87.750404 0.18347,3.87627 0.20907,4.9344 0.24107,10.22932 0.0384,5.70668 -0.0128,8.5824 -0.20907,13.07308 -1.8624,41.50612 -13.97547,81.888 -35.2512,117.5552 -9.45067,15.83147 -20.07253,30.85227 -30.9888,43.79307 -8.47787,10.05225 -17.55093,19.3472 -26.80533,27.45813 -31.97012,28.00212 -68.7232,44.5184 -110.66027,49.7344 -1.96693,0.24105 -6.02665,0.69332 -6.05225,0.66772 -0.006,-0.006 0.14288,-0.41172 0.3392,-0.896 3.22345,-7.9936 6.49812,-17.54452 8.9088,-25.98187 3.3536,-11.75253 5.74505,-22.90345 7.58825,-35.39413 0.18347,-1.2032 0.38615,-2.38505 0.45015,-2.62825 0.0725,-0.24107 0.3072,-1.37175 0.52905,-2.51735 5.62775,-29.22452 15.51147,-57.0944 29.26935,-82.5728 10.3936,-19.24905 22.89065,-36.832 37.1392,-52.25812 3.9616,-4.288 8.6016,-8.928 12.74665,-12.74668 5.39307,-4.96852 11.3216,-9.824 15.72053,-12.8832 2.21654,-1.536 3.30667,-2.95465 3.85707,-5.01332 1.03253,-3.86348 -0.98773,-7.9424 -4.68693,-9.45068 -1.184,-0.48425 -1.61494,-0.56105 -3.0912,-0.56105 -1.216,0.006 -1.35254,0.0192 -1.94134,0.18345 -1.34613,0.37335 -2.1632,0.83628 -4.69973,2.66028 -13.27573,9.57012 -28.96213,24.92372 -41.3824,40.5056 -16.5504,20.75947 -30.0288,43.51147 -40.25173,67.96587 -0.54187,1.29493 -1.8496,4.49705 -2.02667,4.96853 -0.0384,0.0981 -0.0853,0.17067 -0.0981,0.14928 -0.0192,-0.0128 -0.13008,-1.01333 -0.2624,-2.21653 -3.56267,-33.7536 -13.66827,-66.8736 -29.57013,-96.89387 l -1.10507,-2.08426 0.49707,-0.288 c 1.12426,-0.6336 2.07146,-1.5296 2.7968,-2.62827 0.22186,-0.3392 0.76373,-1.2096 1.2032,-1.92853 2.92266,-4.77867 6.96746,-10.83094 10.4192,-15.58827 13.26933,-18.30826 28.77226,-34.60906 46.2848,-48.66986 19.6352,-15.75894 41.4272,-28.43307 64.84693,-37.7152 23.16586,-9.1776 47.65013,-14.869342 72.48213,-16.857598 1.11787,-0.08528 2.1568,-0.170672 2.32107,-0.183472 0.16426,-0.0128 0.3456,-0.0192 0.41813,-0.0192 0.0917,0.0064 0.24107,0.3008 0.66773,1.282128 z"
       id="path504"
       style="fill:#808000;stroke-width:2.13333" />
  </g>
</svg>
