<?xml version="1.0" encoding="UTF-8" standalone="no"?>
<!-- Created with Inkscape (http://www.inkscape.org/) -->

<svg
   width="512.0px"
   height="512.0px"
   viewBox="0 0 512.0 512.0"
   version="1.1"
   id="SVGRoot"
   sodipodi:docname="af-.svg"
   inkscape:version="1.2.2 (b0a8486541, 2022-12-01, custom)"
   xmlns:inkscape="http://www.inkscape.org/namespaces/inkscape"
   xmlns:sodipodi="http://sodipodi.sourceforge.net/DTD/sodipodi-0.dtd"
   xmlns="http://www.w3.org/2000/svg"
   xmlns:svg="http://www.w3.org/2000/svg">
  <sodipodi:namedview
     id="namedview9625"
     pagecolor="#ffffff"
     bordercolor="#000000"
     borderopacity="0.25"
     inkscape:showpageshadow="2"
     inkscape:pageopacity="0.0"
     inkscape:pagecheckerboard="0"
     inkscape:deskcolor="#d1d1d1"
     inkscape:document-units="px"
     showgrid="true"
     inkscape:zoom="0.57434918"
     inkscape:cx="225.47259"
     inkscape:cy="368.24289"
     inkscape:window-width="1366"
     inkscape:window-height="697"
     inkscape:window-x="0"
     inkscape:window-y="0"
     inkscape:window-maximized="1"
     inkscape:current-layer="layer1">
    <inkscape:grid
       type="xygrid"
       id="grid9748" />
  </sodipodi:namedview>
  <defs
     id="defs9620">
    <clipPath
       id="b">
      <path
         d="M 139.21,457 H 612.79 V 612.79 H 139.21 Z"
         id="path1575" />
    </clipPath>
    <clipPath
       id="a">
      <path
         d="M 139.21,139.21 H 612.79 V 295 H 139.21 Z"
         id="path1578" />
    </clipPath>
  </defs>
  <g
     inkscape:label="Layer 1"
     inkscape:groupmode="layer"
     id="layer1">
    <rect
       style="fill:#ffffff;fill-opacity:1;fill-rule:evenodd;stroke-width:0.979803"
       id="rect3140"
       width="512"
       height="512"
       x="0.19713593"
       y="-3.5661306"
       rx="40.813637"
       ry="40.813637" />
    <g
       id="g2281"
       transform="matrix(1.2735193,0,0,1.2735193,-222.58178,-221.85327)"
       style="fill:#a9a9a9">
      <path
         d="m 383.4,369.71 c -8.5078,-3.3281 -11.84,-5.5508 -11.469,-8.8789 0.37109,-2.9609 2.5898,-5.5508 8.8789,-5.1797 7.3984,0.73828 11.84,2.9609 14.059,4.4414 l 3.6992,-10.73 c -3.3281,-1.8516 -7.7695,-3.3281 -14.059,-4.0703 l 0.37109,-8.5078 -9.6211,-0.73828 -0.37109,9.25 c -10.73,1.1094 -17.391,7.3984 -17.758,16.281 -0.37109,9.25 6.2891,14.801 16.648,18.871 7.3984,2.9609 10.359,5.5508 9.9883,9.25 -0.37109,3.6992 -4.4414,5.918 -9.9883,5.5508 -6.2891,-0.37109 -11.84,-2.5898 -15.91,-5.1797 l -3.6992,11.098 c 3.3281,2.2188 9.6211,4.4414 16.281,5.1797 l -0.73828,9.25 9.6211,0.37109 0.73828,-9.9883 c 11.469,-1.1094 18.129,-8.1406 18.5,-17.02 0.36719,-8.8906 -3.7031,-14.441 -15.172,-19.25 z"
         id="path1589"
         style="fill:#a9a9a9;fill-opacity:1" />
      <g
         id="g1832"
         transform="matrix(0.75,0,0,0.75,93.983637,93.954999)"
         style="fill:#a9a9a9">
        <g
           clip-path="url(#b)"
           id="g1585"
           style="fill:#a9a9a9">
          <path
             d="m 610.2,515.12 c -2.5898,-4.0703 -7.0312,-7.3984 -11.469,-9.25 -6.6602,-2.5898 -14.059,-2.9609 -21.09,-2.9609 -34.777,0 -90.645,15.168 -110.62,21.09 -4.4414,-10.359 -16.648,-19.98 -46.25,-19.98 -17.758,0 -34.41,3.6992 -35.148,3.6992 -5.5508,1.1094 -10.359,0.73828 -17.02,-1.1094 -13.32,-3.6992 -24.418,-11.84 -36.258,-19.98 -12.211,-8.5078 -24.418,-17.02 -39.59,-21.828 -24.789,-7.3984 -48.098,-9.25 -68.816,-5.1797 -9.9883,1.8516 -19.609,5.5508 -29.23,8.8789 -8.5078,3.3281 -16.648,6.2891 -25.16,8.1406 -1.8516,0.37109 -3.6992,1.1094 -5.918,1.4805 -4.4414,1.1094 -9.25,2.5898 -12.578,2.5898 -1.1094,0 -1.4805,0 -1.8516,-0.37109 l -9.9883,-2.957 v 99.156 c 0,5.918 5.1797,9.9883 11.469,9.9883 2.9609,0 6.2891,-1.1094 9.25,-1.8516 1.4805,-0.37109 3.3281,-1.1094 4.0703,-1.1094 l 1.4805,-0.37109 c 12.578,-1.8516 25.16,-3.6992 37.367,-3.6992 17.391,0 103.96,22.199 135.79,30.707 l 0.37109,0.004 c 7.0312,1.4805 13.688,2.2188 20.348,2.2188 14.059,0 21.828,-3.3281 22.57,-3.6992 10.73,-4.8086 30.707,-10.359 30.707,-10.359 34.41,-9.6211 168.71,-51.797 169.82,-52.168 18.5,-5.1797 28.117,-11.84 29.969,-19.98 0.73828,-4.0703 -0.37109,-7.7695 -2.2188,-11.098 z m -32.191,16.648 c -1.4805,0.37109 -135.41,42.547 -169.82,52.168 -0.73828,0.37109 -21.09,5.918 -32.93,11.469 0,0 -5.5508,2.5898 -16.281,2.5898 -5.1797,0 -11.098,-0.73828 -17.02,-1.8516 -12.949,-3.3281 -116.91,-31.078 -139.11,-31.078 -13.32,0 -26.641,1.8516 -39.59,4.0703 l -1.4805,0.37109 c -2.2188,0.37109 -4.0703,1.1094 -6.2891,1.4805 h -0.36328 c 0,-31.449 0,-61.047 -0.37109,-75.105 4.4414,-0.37109 8.8789,-1.8516 12.949,-2.9609 1.8516,-0.37109 3.6992,-1.1094 5.1797,-1.4805 9.6211,-2.2188 18.5,-5.5508 27.379,-8.5078 9.25,-3.3281 17.758,-6.6602 26.641,-8.1406 18.129,-3.6992 39.219,-1.8516 61.418,4.8086 12.949,3.6992 23.68,11.469 35.148,19.609 12.211,8.5078 25.16,17.391 40.699,22.199 8.8789,2.5898 16.281,2.9609 24.051,1.1094 0.73828,0 15.91,-3.3281 31.82,-3.3281 14.43,0 32.188,2.5898 33.668,15.168 l 0.37109,4.4414 c -1.1094,0.37109 -2.5898,1.1094 -3.6992,1.4805 -7.0312,2.5898 -14.059,4.0703 -21.461,5.918 -7.3984,1.4805 -14.801,3.3281 -22.199,5.1797 -7.0312,2.2188 -14.059,3.6992 -20.719,2.5898 -6.66,-1.1094 -14.43,-3.3281 -21.828,-4.4414 -7.3984,-1.1094 -15.168,-2.2188 -22.57,-2.5898 -7.3984,-0.37109 -15.168,-0.37109 -22.938,0 -7.3984,0.73828 -14.801,1.1094 -22.57,0.37109 7.0312,2.5898 14.801,2.9609 22.57,3.3281 7.3984,0.37109 14.801,1.1094 22.199,1.8516 7.3984,1.1094 14.801,2.2188 21.828,4.0703 3.6992,0.73828 7.3984,1.4805 10.73,2.5898 3.6992,0.73828 7.3984,1.8516 11.469,2.5898 8.1406,1.1094 16.648,-0.73828 23.68,-3.3281 7.0312,-2.2188 14.059,-4.0703 21.461,-6.2891 7.3984,-2.2188 14.43,-4.8086 21.461,-8.1406 0.73828,-0.37109 1.8516,0.37109 2.5898,-0.37109 l 8.5078,-2.5898 c 0.73828,-0.37109 73.629,-22.57 113.59,-22.57 14.059,0 18.5,2.9609 19.238,4.4414 l 0.37109,1.1094 c -0.008,1.4805 -4.8203,4.0703 -17.77,7.7695 z"
             id="path1583"
             style="fill:#a9a9a9;fill-opacity:1" />
        </g>
        <path
           d="m 376,294.61 c -45.137,0 -81.398,36.258 -81.398,81.398 0,45.137 36.258,81.398 81.398,81.398 45.137,0 81.398,-36.258 81.398,-81.398 0,-45.14 -36.258,-81.398 -81.398,-81.398 z m 0,147.99 c -36.629,0 -66.598,-29.969 -66.598,-66.598 0,-36.629 29.969,-66.598 66.598,-66.598 36.629,0 66.598,29.969 66.598,66.598 0,36.629 -29.969,66.598 -66.598,66.598 z"
           id="path1587"
           style="fill:#a9a9a9;fill-opacity:1" />
        <g
           clip-path="url(#a)"
           id="g1593"
           style="fill:#a9a9a9">
          <path
             d="m 141.8,236.52 c 2.5898,4.0703 7.0312,7.3984 11.469,9.25 6.6602,2.5898 14.059,2.9609 21.09,2.9609 34.777,0 90.645,-15.168 110.62,-21.09 4.4414,10.359 16.648,19.98 46.25,19.98 17.758,0 34.41,-3.6992 35.148,-3.6992 5.5508,-1.1094 10.359,-0.73828 17.02,1.1094 13.32,3.6992 24.418,11.84 36.258,19.98 12.211,8.5078 24.418,17.02 39.59,21.828 24.789,7.3984 48.098,9.25 68.816,5.1797 9.9883,-1.8516 19.609,-5.5508 29.23,-8.8789 8.5078,-3.3281 16.648,-6.2891 25.16,-8.1406 1.8516,-0.37109 3.6992,-1.1094 5.918,-1.4805 4.4414,-1.1094 9.25,-2.5898 12.578,-2.5898 1.1094,0 1.4805,0 1.8516,0.37109 l 9.6211,2.9609 v -99.156 c 0,-5.918 -5.1797,-9.9883 -11.469,-9.9883 -2.9609,0 -6.2891,1.1094 -9.25,1.8516 -1.4805,0.37109 -3.3281,1.1094 -4.0703,1.1094 l -1.4805,0.37109 c -12.578,1.8516 -25.16,3.6992 -37.367,3.6992 -17.391,0 -103.96,-22.199 -135.79,-30.707 l -0.004,-0.008 c -7.0312,-1.4805 -13.691,-2.2188 -20.348,-2.2188 -14.059,0 -21.828,3.3281 -22.57,3.6992 -10.73,4.8086 -30.707,10.359 -30.707,10.359 -34.41,9.6211 -168.71,51.797 -169.82,52.168 -18.5,5.1797 -28.117,11.84 -29.969,19.98 -0.74219,4.0703 0.36719,7.7695 2.2188,11.098 z m 32.188,-16.648 c 1.4805,-0.37109 135.41,-42.547 169.82,-52.168 0.73828,-0.37109 21.09,-5.918 32.93,-11.469 0,0 5.5508,-2.5898 16.281,-2.5898 5.1797,0 11.098,0.73828 17.02,1.8516 12.949,3.3281 116.91,31.078 139.11,31.078 13.32,0 26.641,-1.8516 39.59,-4.0703 l 1.4805,-0.37109 c 2.2188,-0.37109 4.0703,-1.1094 6.2891,-1.4805 h 0.37109 c 0,31.449 0,61.047 0.37109,75.105 -4.4414,0.37109 -8.8789,1.8516 -12.949,2.9609 -1.8516,0.37109 -3.6992,1.1094 -5.1797,1.4805 -9.6211,2.2188 -18.5,5.5508 -27.379,8.5078 -9.25,3.3281 -17.758,6.6602 -26.641,8.1406 -18.129,3.6992 -39.219,1.8516 -61.418,-4.8086 -12.949,-3.6992 -23.68,-11.469 -35.148,-19.609 -12.211,-8.5078 -25.16,-17.391 -40.699,-22.199 -8.8789,-2.5898 -16.281,-2.9609 -24.051,-1.1094 -0.73828,0 -15.91,3.3281 -31.82,3.3281 -14.43,0 -32.188,-2.5898 -33.668,-15.168 l -0.37109,-4.4414 c 1.1094,-0.37109 2.5898,-1.1094 3.6992,-1.4805 7.0312,-2.5898 14.059,-4.0703 21.461,-5.918 7.3984,-1.4805 14.801,-3.3281 22.199,-5.1797 7.0312,-2.2188 14.059,-3.6992 20.719,-2.5898 6.6602,1.1094 14.43,3.3281 21.828,4.4414 7.3984,1.1094 15.168,2.2188 22.57,2.5898 7.3984,0.37109 15.168,0.37109 22.938,0 7.3984,-0.73828 14.801,-1.1094 22.57,-0.37109 -7.0312,-2.5898 -14.801,-2.9609 -22.57,-3.3281 -7.3984,-0.37109 -14.801,-1.1094 -22.199,-1.8516 -7.3984,-1.1094 -14.801,-2.2188 -21.828,-4.0703 -3.6992,-0.73828 -7.3984,-1.4805 -10.73,-2.5898 -3.6992,-0.73828 -7.3984,-1.8516 -11.469,-2.5898 -8.1406,-1.1094 -16.648,0.73828 -23.68,3.3281 -7.0312,2.2188 -14.059,4.0703 -21.461,6.2891 -7.3984,2.2188 -14.43,4.8086 -21.461,8.1406 -0.73828,0.37109 -1.8516,-0.37109 -2.5898,0.37109 l -8.5078,2.5898 c -0.73828,0.37109 -73.629,22.57 -113.59,22.57 -14.059,0 -18.5,-2.9609 -19.238,-4.4414 l -0.37109,-1.1094 c 0.004,-1.4805 4.8125,-4.0703 17.762,-7.7695 z"
             id="path1591"
             style="fill:#a9a9a9;fill-opacity:1" />
        </g>
      </g>
    </g>
    <rect
       style="fill:none;fill-rule:evenodd;stroke:#800040;stroke-width:14.9157;stroke-dasharray:none;stroke-opacity:1"
       id="rect16886"
       width="497.08432"
       height="497.08435"
       x="7.4578447"
       y="7.4578395"
       rx="39.152409"
       ry="39.669582" />
  </g>
</svg>
