<?xml version="1.0" encoding="UTF-8" standalone="no"?>
<!-- Created with Inkscape (http://www.inkscape.org/) -->

<svg
   width="512.0px"
   height="512.0px"
   viewBox="0 0 512.0 512.0"
   version="1.1"
   id="SVGRoot"
   sodipodi:docname="ls+.svg"
   inkscape:version="1.2.2 (b0a8486541, 2022-12-01, custom)"
   xmlns:inkscape="http://www.inkscape.org/namespaces/inkscape"
   xmlns:sodipodi="http://sodipodi.sourceforge.net/DTD/sodipodi-0.dtd"
   xmlns="http://www.w3.org/2000/svg"
   xmlns:svg="http://www.w3.org/2000/svg">
  <sodipodi:namedview
     id="namedview9625"
     pagecolor="#ffffff"
     bordercolor="#000000"
     borderopacity="0.25"
     inkscape:showpageshadow="2"
     inkscape:pageopacity="0.0"
     inkscape:pagecheckerboard="0"
     inkscape:deskcolor="#d1d1d1"
     inkscape:document-units="px"
     showgrid="true"
     inkscape:zoom="0.57434918"
     inkscape:cx="225.47259"
     inkscape:cy="366.50179"
     inkscape:window-width="1366"
     inkscape:window-height="697"
     inkscape:window-x="0"
     inkscape:window-y="0"
     inkscape:window-maximized="1"
     inkscape:current-layer="layer1">
    <inkscape:grid
       type="xygrid"
       id="grid9748" />
  </sodipodi:namedview>
  <defs
     id="defs9620">
    <clipPath
       id="b">
      <path
         d="M 139.21,457 H 612.79 V 612.79 H 139.21 Z"
         id="path1575" />
    </clipPath>
    <clipPath
       id="a">
      <path
         d="M 139.21,139.21 H 612.79 V 295 H 139.21 Z"
         id="path1578" />
    </clipPath>
  </defs>
  <g
     inkscape:label="Layer 1"
     inkscape:groupmode="layer"
     id="layer1">
    <rect
       style="fill:#ffffff;fill-opacity:1;fill-rule:evenodd;stroke-width:0.979803"
       id="rect3140"
       width="512"
       height="512"
       x="0.19713593"
       y="-3.5661306"
       rx="40.813637"
       ry="40.813637" />
    <rect
       style="fill:#008080;fill-rule:evenodd;stroke:#008080;stroke-width:14.9844;stroke-dasharray:none;stroke-opacity:1;fill-opacity:1"
       id="rect12031"
       width="497.01559"
       height="497.01562"
       x="7.4922037"
       y="7.4921985"
       rx="38.075699"
       ry="39.414173" />
    <path
       d="m 236.33124,26.34371 c -19.31666,2.369021 -38.26885,8.200471 -56.49212,17.403219 -17.7677,8.929399 -28.06384,16.492062 -42.82469,31.252911 -14.48749,14.487499 -22.23239,24.874753 -30.88844,41.91352 -12.93852,25.51258 -18.223271,50.02287 -17.129875,79.27121 1.002286,24.87476 8.473821,54.76093 22.505735,89.2029 27.51714,67.88169 59.86344,120.72917 101.50361,166.10511 11.84512,12.8474 28.15495,27.97272 33.9864,31.43513 2.82461,1.6401 4.55582,2.09568 6.46927,1.6401 3.37129,-0.72893 12.3007,-8.01823 25.6948,-21.04788 5.74033,-5.6492 11.57177,-11.11619 12.84741,-12.11847 4.00912,-3.09795 15.94535,-10.29614 32.71077,-19.68113 29.5217,-16.49206 44.19143,-27.24379 60.41014,-44.19143 20.31893,-21.23011 33.43969,-46.46933 40.00006,-76.99331 1.82234,-8.65605 2.0957,-12.48294 2.00457,-27.79048 -0.091,-24.05472 -3.55353,-45.1026 -11.48066,-68.79286 -5.10251,-15.30754 -9.65834,-24.32804 -12.75628,-25.42145 -3.64466,-1.27563 -6.19592,1.45787 -11.6629,12.48294 -7.65378,15.30755 -13.21187,22.05016 -40.18231,48.92948 -31.34402,31.2529 -39.45338,40.82012 -46.65157,55.12539 -11.29842,22.59686 -16.03647,52.02743 -15.39867,95.94552 0.18224,6.92483 0.4556,9.38498 1.27564,9.11162 1.64009,-0.5467 14.94307,-18.40549 24.96587,-33.34858 23.32579,-35.07979 37.17548,-61.68576 58.13224,-112.43757 1.36675,-3.28019 3.18907,-6.65149 4.00911,-7.38042 4.55583,-4.10023 11.1162,-1.45787 11.1162,4.4647 0,8.38271 -27.88161,68.33726 -44.92036,96.49222 -23.87248,39.6356 -43.28027,64.87483 -72.25527,94.03206 -9.65833,9.65833 -18.13215,17.58545 -18.86108,17.58545 -2.09567,0 -29.24835,-26.69708 -40.00007,-39.36225 -35.53538,-41.54906 -64.14591,-90.75189 -89.29403,-153.34882 -9.38497,-23.14354 -18.22326,-55.2165 -19.95447,-72.4375 -2.1868,-20.22781 0.45558,-43.18913 7.01596,-62.05022 13.30298,-38.17775 40.45565,-69.066195 76.44661,-86.833883 26.1504,-12.938523 49.84064,-17.494338 78.54229,-15.307546 20.95677,1.731214 32.893,4.738054 50.38733,13.029635 31.43515,14.943088 58.13224,43.098031 70.1596,73.986474 3.46242,8.74717 5.01139,14.76084 7.28931,27.42602 1.91344,11.02508 3.28019,13.30298 7.836,13.30298 4.28246,0 5.83146,-2.64236 5.83146,-10.02278 -0.0911,-11.20732 -4.64694,-27.97273 -11.93626,-43.64474 C 373.46135,68.712812 332.00341,37.186551 281.43383,27.983803 273.50671,26.525939 243.62055,25.523662 236.33124,26.34371 Z"
       id="path1146"
       style="fill:#ffffff;stroke:none;stroke-width:0.0911161" />
    <path
       d="m 239.91675,116.02239 c -12.66518,2.73348 -23.32578,8.65605 -32.893,18.22326 -12.02736,12.02737 -17.85879,26.15038 -17.85879,43.73586 -0.091,16.03646 4.46469,29.06611 14.03191,40.36452 12.39182,14.4875 28.70164,22.05017 47.92719,22.14128 11.48066,0 19.04332,-1.7312 29.33948,-6.7426 6.28703,-3.09797 9.29387,-5.28477 15.94535,-12.02735 6.74262,-6.65152 9.02052,-9.65835 12.11847,-16.03649 4.55582,-9.29387 6.56038,-17.67657 6.56038,-28.15495 0,-17.58545 -5.74033,-31.2529 -18.22326,-43.82696 -6.46927,-6.56037 -9.11164,-8.56494 -16.40094,-12.11848 -13.12075,-6.37815 -27.7905,-8.3827 -40.54679,-5.55809 z m 23.14355,13.66745 c 38.08664,9.02052 51.20739,55.39874 23.41692,82.91586 -19.13443,19.04333 -48.92948,19.40778 -68.70174,1.00229 -4.4647,-4.19135 -6.65149,-7.19818 -10.02279,-14.03191 l -4.28248,-8.65606 v -12.8474 -12.84741 l 3.91801,-8.01823 c 10.38726,-21.32123 33.53081,-32.71078 55.67208,-27.51714 z"
       id="path1148"
       style="fill:#ffffff;stroke:none;stroke-width:0.0911161" />
  </g>
</svg>
