<?xml version="1.0" encoding="UTF-8" standalone="no"?>
<!-- Created with Inkscape (http://www.inkscape.org/) -->

<svg
   width="512.0px"
   height="512.0px"
   viewBox="0 0 512.0 512.0"
   version="1.1"
   id="SVGRoot"
   sodipodi:docname="gf+.svg"
   inkscape:version="1.2.2 (b0a8486541, 2022-12-01, custom)"
   xmlns:inkscape="http://www.inkscape.org/namespaces/inkscape"
   xmlns:sodipodi="http://sodipodi.sourceforge.net/DTD/sodipodi-0.dtd"
   xmlns="http://www.w3.org/2000/svg"
   xmlns:svg="http://www.w3.org/2000/svg">
  <sodipodi:namedview
     id="namedview9625"
     pagecolor="#ffffff"
     bordercolor="#000000"
     borderopacity="0.25"
     inkscape:showpageshadow="2"
     inkscape:pageopacity="0.0"
     inkscape:pagecheckerboard="0"
     inkscape:deskcolor="#d1d1d1"
     inkscape:document-units="px"
     showgrid="true"
     inkscape:zoom="0.57434918"
     inkscape:cx="234.1781"
     inkscape:cy="364.76068"
     inkscape:window-width="1366"
     inkscape:window-height="697"
     inkscape:window-x="0"
     inkscape:window-y="0"
     inkscape:window-maximized="1"
     inkscape:current-layer="layer1">
    <inkscape:grid
       type="xygrid"
       id="grid9748" />
  </sodipodi:namedview>
  <defs
     id="defs9620" />
  <g
     inkscape:label="Layer 1"
     inkscape:groupmode="layer"
     id="layer1">
    <rect
       style="fill:#ffffff;fill-opacity:1;fill-rule:evenodd;stroke-width:0.979803"
       id="rect3140"
       width="512"
       height="512"
       x="0.19713593"
       y="-3.5661306"
       rx="40.813637"
       ry="40.813637" />
    <rect
       style="fill:#ff8c00;fill-rule:evenodd;stroke:#ff8c00;stroke-width:14.8862;stroke-dasharray:none;stroke-opacity:1;fill-opacity:1"
       id="rect13909"
       width="497.11374"
       height="497.11377"
       x="7.4431324"
       y="7.4431272"
       rx="36.490601"
       ry="38.572777" />
    <g
       transform="matrix(0.09374363,0,0,-0.09374363,-97.321036,608.82891)"
       fill="#000000"
       stroke="none"
       id="g6444"
       style="fill:#ffffff;stroke:none;stroke-opacity:1">
      <path
         d="m 3520,5969 c -402,-45 -781,-196 -1109,-442 -123,-92 -326,-295 -418,-418 -225,-301 -366,-628 -428,-999 -22,-131 -31,-429 -16,-571 60,-576 339,-1108 771,-1472 476,-400 1087,-584 1702,-512 645,75 1225,431 1587,972 441,660 494,1521 136,2233 -181,361 -479,685 -821,893 -288,176 -606,284 -933,317 -118,12 -361,11 -471,-1 z m 595,-247 c 342,-66 668,-220 931,-440 l 39,-32 -350,-350 c -192,-192 -347,-351 -345,-353 3,-2 42,-9 87,-16 45,-6 103,-19 129,-28 l 46,-16 299,299 299,299 32,-39 c 222,-264 374,-588 441,-936 19,-99 22,-148 22,-350 0,-200 -4,-252 -22,-350 -80,-418 -259,-756 -558,-1055 -332,-332 -722,-521 -1188,-576 -142,-16 -434,-7 -572,20 -294,55 -568,172 -806,344 -48,34 -103,77 -124,95 l -38,34 233,233 232,233 -31,80 c -17,44 -33,98 -37,121 -4,23 -9,41 -13,41 -3,0 -128,-122 -277,-271 l -272,-272 -34,38 c -18,21 -61,76 -95,124 -173,240 -288,511 -346,811 -30,158 -32,520 -3,680 106,597 448,1086 976,1398 223,132 464,210 785,256 17,2 125,3 240,1 163,-2 235,-7 320,-23 z"
         id="path6434"
         style="fill:#ffffff;stroke:none;stroke-opacity:1" />
      <path
         d="m 3705,5418 c -99,-110 -180,-254 -211,-378 -12,-47 -15,-92 -12,-162 4,-87 9,-106 41,-171 40,-80 109,-154 189,-201 l 48,-28 52,31 c 77,44 152,125 190,206 31,67 33,76 33,185 0,139 -20,214 -92,338 -48,82 -166,232 -182,232 -5,0 -30,-24 -56,-52 z"
         id="path6436"
         style="fill:#ffffff;stroke:none;stroke-opacity:1" />
      <path
         d="m 3080,4440 c -117,-21 -150,-31 -150,-49 0,-20 39,-135 68,-203 55,-124 187,-280 280,-327 75,-38 150,-54 238,-49 72,4 94,10 164,44 l 80,40 80,-40 c 70,-34 92,-40 164,-44 139,-7 238,32 350,137 93,88 157,194 212,355 35,102 36,102 -48,121 -322,73 -605,-21 -713,-237 -19,-39 -35,-79 -35,-89 0,-11 -4,-19 -10,-19 -5,0 -10,8 -10,19 0,10 -16,50 -35,89 -58,115 -166,199 -306,238 -67,18 -256,26 -329,14 z"
         id="path6438"
         style="fill:#ffffff;stroke:none;stroke-opacity:1" />
      <path
         d="m 3020,3714 c -95,-20 -93,-19 -85,-62 23,-124 126,-314 224,-411 153,-153 343,-187 529,-96 l 72,36 73,-36 c 282,-139 572,22 718,398 16,43 31,94 32,114 2,35 1,37 -48,50 -66,19 -317,29 -382,15 -144,-31 -259,-104 -324,-205 -22,-34 -45,-81 -52,-104 -6,-24 -14,-43 -17,-43 -3,0 -11,19 -17,43 -18,65 -85,160 -145,206 -110,83 -211,111 -388,110 -69,0 -154,-7 -190,-15 z"
         id="path6440"
         style="fill:#ffffff;stroke:none;stroke-opacity:1" />
      <path
         d="m 3049,3005 c -136,-23 -133,-19 -95,-133 109,-318 329,-509 565,-489 36,3 85,13 109,21 l 42,15 v -184 -185 h 90 90 v 185 184 l 43,-15 c 220,-79 468,47 601,304 48,94 96,220 96,253 0,21 -36,33 -145,49 -242,34 -447,-19 -567,-149 -55,-58 -94,-126 -105,-182 -3,-16 -9,-29 -13,-29 -4,0 -10,13 -13,29 -11,56 -50,124 -105,182 -123,134 -341,187 -593,144 z"
         id="path6442"
         style="fill:#ffffff;stroke:none;stroke-opacity:1" />
    </g>
  </g>
</svg>
