<svg version="1.0" xmlns="http://www.w3.org/2000/svg" width="512" height="512" viewBox="0 0 384 384"><path d="M90.922 101.802c-0.928 0.138 -1.664 0.49 -2.258 1.091 -0.478 0.484 -0.631 0.76 -1.547 2.813 -6.459 14.474 -10.111 29.962 -10.794 45.775 -0.15 3.493 -0.144 7.537 0.015 11.061 1.008 22.06 7.801 43.413 19.753 62.075 6.293 9.826 14.042 18.837 22.851 26.567 10.142 8.901 21.582 16.064 34.086 21.337 13.153 5.549 27.201 8.793 41.669 9.624 1.59 0.089 3.337 0.021 6.48 -0.251 20.761 -1.802 39.261 -8.974 55.227 -21.411 8.588 -6.689 16.631 -15.032 23.99 -24.882 3.116 -4.173 6.024 -8.487 8.953 -13.282 3.842 -6.293 6.97 -12.562 9.676 -19.395 4.391 -11.082 7.197 -22.906 8.273 -34.837 0.702 -7.825 0.665 -15.813 -0.11 -23.607 -1.268 -12.761 -4.473 -25.216 -9.513 -36.988 -0.824 -1.927 -1.627 -3.674 -1.826 -3.98 -0.521 -0.797 -1.275 -1.339 -2.227 -1.599 -0.285 -0.08 -0.322 -0.083 -1.075 -0.08 -1.354 0.003 -4.633 0.245 -7.476 0.552 -18.819 2.022 -36.902 8.254 -52.944 18.252 -7.142 4.452 -13.693 9.51 -19.9 15.369 -0.941 0.885 -3.79 3.726 -4.66 4.645 -5.61 5.923 -10.708 12.443 -14.897 19.058 -0.322 0.506 -0.604 0.947 -0.625 0.977 -0.04 0.055 -0.074 0.012 -0.408 -0.521 -5.926 -9.428 -13.346 -18.279 -21.677 -25.859 -10.053 -9.143 -21.457 -16.554 -33.917 -22.042 -13.558 -5.968 -28.231 -9.51 -43.048 -10.384 -1.14 -0.067 -1.927 -0.098 -2.068 -0.077zm4.06 7.779c3.186 0.251 6.692 0.68 9.881 1.213 15.194 2.531 29.671 7.972 42.757 16.067 11.885 7.353 22.449 16.848 31.025 27.882 7.727 9.942 13.781 20.994 18.028 32.906 0.38 1.063 1.244 3.671 1.593 4.81 2.773 9.029 4.446 18.285 5.009 27.713 0.159 2.666 0.211 4.865 0.19 7.874 -0.018 2.362 -0.037 3.049 -0.129 4.948 -0.527 10.702 -2.522 21.316 -5.929 31.512 -0.662 1.982 -1.749 4.994 -1.805 4.994 -0.012 0 -1.762 -2.954 -3.894 -6.566 -2.129 -3.609 -5.736 -9.722 -8.012 -13.579 -2.28 -3.861 -6.269 -10.623 -8.87 -15.028s-7.369 -12.485 -10.595 -17.955 -7.672 -13.003 -9.881 -16.744c-2.206 -3.741 -5.503 -9.327 -7.323 -12.409 -1.82 -3.085 -3.37 -5.705 -3.447 -5.821 -0.187 -0.282 -0.665 -0.76 -0.968 -0.965 -1.161 -0.778 -2.574 -0.879 -3.815 -0.27 -0.705 0.346 -1.339 0.984 -1.7 1.704 -0.512 1.02 -0.515 2.319 -0.006 3.324 0.095 0.187 32.582 55.245 51.177 86.727 0.729 1.238 1.321 2.255 1.311 2.264 -0.018 0.018 -1.223 -0.113 -2.497 -0.273 -14.771 -1.844 -29.058 -6.468 -42.129 -13.641 -14.109 -7.739 -26.509 -18.316 -36.39 -31.034 -5.779 -7.436 -10.699 -15.638 -14.526 -24.199 -5.981 -13.392 -9.391 -27.636 -10.132 -42.313 -0.104 -2.117 -0.123 -2.886 -0.123 -5.837 0 -2.957 0.015 -3.698 0.123 -5.867 0.696 -13.941 3.87 -27.713 9.327 -40.459 0.239 -0.555 0.432 -1.026 0.432 -1.048 0 -0.028 0.046 -0.034 0.178 -0.025 0.095 0.009 0.61 0.052 1.14 0.092zm195.618 0.506c5.61 12.96 8.879 27.057 9.541 41.133 0.086 1.817 0.098 2.313 0.113 4.795 0.018 2.675 -0.006 4.023 -0.098 6.128 -0.873 19.456 -6.551 38.385 -16.524 55.104 -4.43 7.421 -9.409 14.462 -14.526 20.528 -3.974 4.712 -8.227 9.069 -12.565 12.871 -14.986 13.126 -32.214 20.868 -51.872 23.313 -0.922 0.113 -2.825 0.325 -2.837 0.313 -0.003 -0.003 0.067 -0.193 0.159 -0.42 1.511 -3.747 3.046 -8.224 4.176 -12.179 1.572 -5.509 2.693 -10.736 3.557 -16.591 0.086 -0.564 0.181 -1.118 0.211 -1.232 0.034 -0.113 0.144 -0.643 0.248 -1.18 2.638 -13.699 7.271 -26.763 13.72 -38.706 4.872 -9.023 10.73 -17.265 17.409 -24.496 1.857 -2.01 4.032 -4.185 5.975 -5.975 2.528 -2.329 5.307 -4.605 7.369 -6.039 1.039 -0.72 1.55 -1.385 1.808 -2.35 0.484 -1.811 -0.463 -3.723 -2.197 -4.43 -0.555 -0.227 -0.757 -0.263 -1.449 -0.263 -0.57 0.003 -0.634 0.009 -0.91 0.086 -0.631 0.175 -1.014 0.392 -2.203 1.247 -6.223 4.486 -13.576 11.683 -19.398 18.987 -7.758 9.731 -14.076 20.396 -18.868 31.859 -0.254 0.607 -0.867 2.108 -0.95 2.329 -0.018 0.046 -0.04 0.08 -0.046 0.07 -0.009 -0.006 -0.061 -0.475 -0.123 -1.039 -1.67 -15.822 -6.407 -31.347 -13.861 -45.419l-0.518 -0.977 0.233 -0.135c0.527 -0.297 0.971 -0.717 1.311 -1.232 0.104 -0.159 0.358 -0.567 0.564 -0.904 1.37 -2.24 3.266 -5.077 4.884 -7.307 6.22 -8.582 13.487 -16.223 21.696 -22.814 9.204 -7.387 19.419 -13.328 30.397 -17.679 10.859 -4.302 22.336 -6.97 33.976 -7.902 0.524 -0.04 1.011 -0.08 1.088 -0.086s0.162 -0.009 0.196 -0.009c0.043 0.003 0.113 0.141 0.313 0.601z"/></svg>