<?xml version="1.0" encoding="UTF-8" standalone="no"?>
<!-- Created with Inkscape (http://www.inkscape.org/) -->

<svg
   width="512.0px"
   height="512.0px"
   viewBox="0 0 512.0 512.0"
   version="1.1"
   id="SVGRoot"
   sodipodi:docname="pl-.svg"
   inkscape:version="1.2.2 (b0a8486541, 2022-12-01, custom)"
   xmlns:inkscape="http://www.inkscape.org/namespaces/inkscape"
   xmlns:sodipodi="http://sodipodi.sourceforge.net/DTD/sodipodi-0.dtd"
   xmlns="http://www.w3.org/2000/svg"
   xmlns:svg="http://www.w3.org/2000/svg">
  <sodipodi:namedview
     id="namedview9625"
     pagecolor="#ffffff"
     bordercolor="#000000"
     borderopacity="0.25"
     inkscape:showpageshadow="2"
     inkscape:pageopacity="0.0"
     inkscape:pagecheckerboard="0"
     inkscape:deskcolor="#d1d1d1"
     inkscape:document-units="px"
     showgrid="true"
     inkscape:zoom="0.57434918"
     inkscape:cx="234.1781"
     inkscape:cy="364.76068"
     inkscape:window-width="1366"
     inkscape:window-height="697"
     inkscape:window-x="0"
     inkscape:window-y="0"
     inkscape:window-maximized="1"
     inkscape:current-layer="layer1">
    <inkscape:grid
       type="xygrid"
       id="grid9748" />
  </sodipodi:namedview>
  <defs
     id="defs9620" />
  <g
     inkscape:label="Layer 1"
     inkscape:groupmode="layer"
     id="layer1">
    <rect
       style="fill:#ffffff;fill-opacity:1;fill-rule:evenodd;stroke-width:0.979803"
       id="rect3140"
       width="512"
       height="512"
       x="0.19713593"
       y="-3.5661306"
       rx="40.813637"
       ry="40.813637" />
    <path
       d="M 31.230429,3.9902914 C 20.63604,8.9784806 10.162043,18.31807 4.5036777,27.657653 l -4.33407253,7.32308 0.24078702,222.770387 0.3611749,222.66427 3.37093471,6.0495 c 4.0932895,7.42922 13.0022112,16.13203 21.6703402,21.43861 l 6.380718,3.92686 223.20448,-0.42455 c 181.4289,-0.21224 224.28803,-0.53064 228.3813,-1.69809 6.26031,-1.6981 18.41984,-12.62965 24.19854,-21.65084 l 3.8525,-6.04954 -0.24079,-225.31752 -0.36118,-225.211434 -3.25053,-4.882049 C 501.1156,16.407697 494.4941,10.464312 484.02011,5.157744 L 473.90729,0.16955499 H 256.60195 L 39.296615,0.27567179 Z M 472.70339,19.803918 c 7.94578,3.820736 16.73432,11.462217 18.78099,16.132006 2.88937,6.792425 3.37088,40.330035 3.49133,232.746746 v 203.24218 l -3.25063,5.73109 c -4.09326,7.0047 -11.19628,13.58489 -19.02169,17.72401 l -5.89916,2.97168 -208.99839,0.10615 H 48.927874 L 40.86169,494.9554 C 32.073168,491.13469 25.933235,485.72196 21.59917,477.86823 L 18.83018,472.98618 18.469012,258.38791 18.107835,43.789667 21.1176,38.164684 C 28.220663,25.004369 38.57427,18.211934 53.141554,17.044491 58.077573,16.726102 152.82511,16.30157 263.70499,16.30157 l 201.53418,-0.212271 z"
       id="path1013"
       style="display:inline;fill:#800000;fill-opacity:1;stroke:#800000;stroke-width:15.11811024;stroke-dasharray:none;stroke-opacity:0.0588235" />
    <path
       style="fill:#ffffff;stroke:#a9a9a9;stroke-width:15.11811024;stroke-dasharray:none;stroke-opacity:1;fill-opacity:1"
       d="m 366.62216,105.68239 c 3.88055,-1.99791 8.25188,0.77818 11.4051,2.97364 8.24889,5.74221 15.55646,13.99714 21.28971,22.28505 19.72137,28.51362 24.31128,65.18194 6.20614,95.77882 -19.67796,33.25773 -56.25027,51.16983 -91.84687,61.77588 -14.61969,4.35643 -29.51466,5.76319 -43.39957,12.0217 -21.80599,9.8278 -39.33796,27.90156 -61.35792,36.2463 -9.68863,3.67254 -12.34794,-0.29355 -19.04495,4.80389 -3.40016,2.58904 -8.16058,10.96818 -12.40478,15.35159 -4.47166,4.61531 -10.51764,9.10946 -13.0438,14.96542 -1.94398,4.50462 -0.22737,8.57372 -0.58066,13.4689 -0.70035,9.7096 -7.45873,20.2303 -17.78033,22.10699 -18.24277,3.31629 -18.68576,-9.94156 -28.04212,-19.73047 -10.4548,-10.93524 -27.340207,-12.67126 -19.451952,-33.79796 6.282462,-16.82565 20.325942,-8.53327 32.528682,-12.88676 7.07561,-2.52466 12.58737,-10.44134 17.95844,-15.48772 4.11996,-3.87158 11.12076,-7.4303 13.4868,-10.9517 3.32527,-4.95057 2.5411,-7.34655 4.16183,-14.5554 6.83174,-30.36939 35.13868,-51.89864 43.47286,-82.30993 5.40999,-19.7424 8.18312,-39.91885 17.0845,-58.36523 4.34594,-9.00319 9.89658,-22.81333 16.86745,-29.449 7.13401,-6.79278 27.83106,6.69557 39.61479,5.22743 9.41021,-1.17179 15.44125,-8.96579 23.9446,-10.78857 4.75749,-1.01915 8.89986,1.299 13.46877,2.44535 8.33422,2.09066 17.82674,1.38731 25.44113,-2.42142 8.99719,-4.50011 12.06806,-14.61079 20.02215,-18.7068 M 164.02268,316.51256 c 5.45635,8.1771 15.78841,17.99591 23.94454,25.44127"
       id="path330"
       sodipodi:nodetypes="cccccccccccccccccccccccccccc" />
  </g>
</svg>
