<?xml version="1.0" encoding="UTF-8" standalone="no"?>
<!-- Created with Inkscape (http://www.inkscape.org/) -->

<svg
   width="512.0px"
   height="512.0px"
   viewBox="0 0 512.0 512.0"
   version="1.1"
   id="SVGRoot"
   sodipodi:docname="pl.svg"
   inkscape:version="1.2.1 (8a69933317, 2022-10-28, custom)"
   xmlns:inkscape="http://www.inkscape.org/namespaces/inkscape"
   xmlns:sodipodi="http://sodipodi.sourceforge.net/DTD/sodipodi-0.dtd"
   xmlns="http://www.w3.org/2000/svg"
   xmlns:svg="http://www.w3.org/2000/svg">
  <sodipodi:namedview
     id="namedview9625"
     pagecolor="#ffffff"
     bordercolor="#000000"
     borderopacity="0.25"
     inkscape:showpageshadow="2"
     inkscape:pageopacity="0.0"
     inkscape:pagecheckerboard="0"
     inkscape:deskcolor="#d1d1d1"
     inkscape:document-units="px"
     showgrid="true"
     inkscape:zoom="0.57434918"
     inkscape:cx="242.01306"
     inkscape:cy="363.01958"
     inkscape:window-width="1366"
     inkscape:window-height="697"
     inkscape:window-x="0"
     inkscape:window-y="0"
     inkscape:window-maximized="1"
     inkscape:current-layer="layer1">
    <inkscape:grid
       type="xygrid"
       id="grid9748" />
  </sodipodi:namedview>
  <defs
     id="defs9620" />
  <g
     inkscape:label="Layer 1"
     inkscape:groupmode="layer"
     id="layer1">
    <rect
       style="fill:#ffffff;fill-opacity:1;fill-rule:evenodd;stroke-width:0.979803"
       id="rect3140"
       width="512"
       height="512"
       x="0.19713593"
       y="-3.5661306"
       rx="40.813637"
       ry="40.813637" />
    <path
       d="M 31.549496,1.9577838 C 20.955107,6.945973 10.48111,16.285562 4.822745,25.625145 l -4.33407252,7.32308 0.24078702,222.770385 0.3611749,222.66427 3.3709347,6.0495 c 4.0932895,7.42922 13.0022109,16.13203 21.6703399,21.43861 l 6.380718,3.92686 223.204483,-0.42455 c 181.4289,-0.21224 224.28803,-0.53064 228.3813,-1.69809 6.26031,-1.6981 18.41984,-12.62965 24.19854,-21.65084 l 3.8525,-6.04954 -0.24079,-225.31752 -0.36118,-225.211432 -3.25053,-4.882049 C 501.43467,14.375189 494.81317,8.4318048 484.33918,3.1252364 l -10.11282,-4.988189 H 256.92102 L 39.615682,-1.7568358 Z M 473.02246,17.77141 c 7.94578,3.820736 16.73432,11.462217 18.78099,16.132006 2.88937,6.792425 3.37088,40.330035 3.49133,232.746744 v 203.24218 l -3.25063,5.73109 c -4.09326,7.0047 -11.19628,13.58489 -19.02169,17.72401 l -5.89916,2.97168 -208.99839,0.10615 H 49.246941 l -8.066184,-3.50238 c -8.788522,-3.82071 -14.928455,-9.23344 -19.26252,-17.08717 L 19.149247,470.95367 18.788079,256.3554 18.426902,41.757159 21.436667,36.132176 C 28.53973,22.971861 38.893337,16.179426 53.460621,15.011983 58.39664,14.693594 153.14418,14.269062 264.02406,14.269062 l 201.53418,-0.212271 z"
       id="path1013"
       style="display:inline;fill:#800000;fill-opacity:1;stroke:#800000;stroke-width:0.33911;stroke-dasharray:none;stroke-opacity:0.05882353" />
    <path
       style="fill:#ffffff;stroke:#800000;stroke-width:22.4269;stroke-dasharray:none;stroke-opacity:1;fill-opacity:1"
       d="m 366.62216,105.68239 c 3.88055,-1.99791 8.25188,0.77818 11.4051,2.97364 8.24889,5.74221 15.55646,13.99714 21.28971,22.28505 19.72137,28.51362 24.31128,65.18194 6.20614,95.77882 -19.67796,33.25773 -56.25027,51.16983 -91.84687,61.77588 -14.61969,4.35643 -29.51466,5.76319 -43.39957,12.0217 -21.80599,9.8278 -39.33796,27.90156 -61.35792,36.2463 -9.68863,3.67254 -12.34794,-0.29355 -19.04495,4.80389 -3.40016,2.58904 -8.16058,10.96818 -12.40478,15.35159 -4.47166,4.61531 -10.51764,9.10946 -13.0438,14.96542 -1.94398,4.50462 -0.22737,8.57372 -0.58066,13.4689 -0.70035,9.7096 -7.45873,20.2303 -17.78033,22.10699 -18.24277,3.31629 -18.68576,-9.94156 -28.04212,-19.73047 -10.4548,-10.93524 -27.340207,-12.67126 -19.451952,-33.79796 6.282462,-16.82565 20.325942,-8.53327 32.528682,-12.88676 7.07561,-2.52466 12.58737,-10.44134 17.95844,-15.48772 4.11996,-3.87158 11.12076,-7.4303 13.4868,-10.9517 3.32527,-4.95057 2.5411,-7.34655 4.16183,-14.5554 6.83174,-30.36939 35.13868,-51.89864 43.47286,-82.30993 5.40999,-19.7424 8.18312,-39.91885 17.0845,-58.36523 4.34594,-9.00319 9.89658,-22.81333 16.86745,-29.449 7.13401,-6.79278 27.83106,6.69557 39.61479,5.22743 9.41021,-1.17179 15.44125,-8.96579 23.9446,-10.78857 4.75749,-1.01915 8.89986,1.299 13.46877,2.44535 8.33422,2.09066 17.82674,1.38731 25.44113,-2.42142 8.99719,-4.50011 12.06806,-14.61079 20.02215,-18.7068 M 164.02268,316.51256 c 5.45635,8.1771 15.78841,17.99591 23.94454,25.44127"
       id="path330"
       sodipodi:nodetypes="cccccccccccccccccccccccccccc" />
  </g>
</svg>
